<svg width="33" height="22" viewBox="0 0 33 22" fill="none" xmlns="http://www.w3.org/2000/svg">
<g clip-path="url(#clip0_454_735)">
<path d="M29.7464 0.330078H3.08816C2.97711 0.330078 2.86587 0.330078 2.75502 0.330667C2.66143 0.331452 2.56804 0.332432 2.47445 0.334983C2.27061 0.340477 2.06499 0.352641 1.86369 0.388741C1.66182 0.423328 1.46622 0.4878 1.28334 0.580033C0.915702 0.767024 0.616878 1.06585 0.429886 1.43349C0.337489 1.61644 0.27301 1.81219 0.238595 2.01423C0.202102 2.21573 0.190134 2.42114 0.18464 2.6248C0.18209 2.71838 0.180913 2.81177 0.180324 2.90536C0.179932 3.01601 0.179932 3.12706 0.179932 3.2383V18.2117C0.179932 18.3229 0.179932 18.4338 0.180324 18.545C0.180913 18.6384 0.18209 18.732 0.18464 18.8256C0.190134 19.0288 0.202298 19.2344 0.238595 19.4357C0.272939 19.6378 0.337352 19.8335 0.42969 20.0165C0.522528 20.1992 0.643708 20.3661 0.788731 20.5109C0.933505 20.656 1.10039 20.7772 1.28315 20.8699C1.46895 20.9647 1.65926 21.0249 1.86389 21.0616C2.06499 21.0975 2.27061 21.1097 2.47445 21.1152C2.56804 21.1173 2.66143 21.1187 2.75502 21.1191C2.86587 21.1199 2.97711 21.1199 3.08816 21.1199H29.7464C29.8573 21.1199 29.9685 21.1199 30.0794 21.1191C30.173 21.1186 30.2665 21.1173 30.3601 21.1152C30.5636 21.1097 30.7692 21.0975 30.9709 21.0616C31.1728 21.027 31.3684 20.9624 31.5512 20.8699C31.9187 20.6827 32.2174 20.3839 32.4047 20.0165C32.4994 19.8307 32.5595 19.6404 32.5958 19.4357C32.6323 19.2344 32.644 19.0288 32.6495 18.8256C32.6521 18.732 32.6535 18.6384 32.6538 18.545C32.6546 18.4338 32.6546 18.3229 32.6546 18.2117V3.2385C32.6546 3.12726 32.6546 3.01621 32.6538 2.90516C32.6535 2.81169 32.652 2.71823 32.6495 2.6248C32.644 2.42114 32.6323 2.21573 32.5958 2.01423C32.5616 1.81215 32.4972 1.61637 32.4047 1.43349C32.2176 1.06592 31.9188 0.767124 31.5512 0.580033C31.3683 0.487895 31.1727 0.423491 30.9709 0.388937C30.7692 0.352641 30.5636 0.340673 30.3601 0.335179C30.2665 0.332803 30.173 0.331364 30.0794 0.330863C29.9685 0.330078 29.8573 0.330078 29.7464 0.330078Z" fill="black"/>
<path d="M29.7463 1.02295L30.0744 1.02354C30.163 1.02413 30.2519 1.02511 30.3412 1.02746C30.4966 1.03178 30.6784 1.04021 30.848 1.07063C30.9951 1.09711 31.1187 1.13733 31.2372 1.19776C31.4744 1.31834 31.667 1.5112 31.7873 1.74849C31.8474 1.8662 31.8874 1.98902 31.9139 2.13754C31.9441 2.3051 31.9525 2.48736 31.9567 2.64373C31.9592 2.73202 31.9604 2.82031 31.9606 2.91056C31.9616 3.01984 31.9616 3.12893 31.9616 3.2384V18.2118C31.9616 18.3212 31.9616 18.4303 31.9608 18.5418C31.9604 18.63 31.9592 18.7183 31.9569 18.8066C31.9525 18.9628 31.9441 19.1451 31.9135 19.3146C31.8913 19.4494 31.8486 19.5801 31.787 19.7021C31.6664 19.9394 31.4734 20.1323 31.236 20.2528C31.1183 20.3128 30.9951 20.3532 30.8493 20.3793C30.6763 20.4101 30.487 20.4186 30.3443 20.4225C30.2547 20.4245 30.1654 20.4258 30.0738 20.4262C29.9649 20.427 29.8554 20.427 29.7463 20.427H3.08375C2.97584 20.427 2.86793 20.427 2.75806 20.4262C2.66976 20.4258 2.58147 20.4247 2.49319 20.4227C2.34722 20.4188 2.1577 20.4101 1.98622 20.3795C1.85064 20.3569 1.71927 20.3139 1.59657 20.252C1.47888 20.1922 1.37146 20.1141 1.27834 20.0205C1.18493 19.9273 1.10692 19.8198 1.04722 19.7021C0.985498 19.5794 0.9427 19.4481 0.920282 19.3126C0.889872 19.1433 0.881435 18.9618 0.877119 18.8068C0.874902 18.7182 0.873594 18.6296 0.873195 18.541L0.872803 18.2806V3.16974L0.873195 2.90977C0.873784 2.8209 0.874765 2.73222 0.877119 2.64354C0.881435 2.48815 0.889872 2.30667 0.920675 2.13597C0.943075 2.00077 0.985807 1.86973 1.04742 1.74731C1.10706 1.62998 1.18476 1.52286 1.27893 1.42908C1.37227 1.33559 1.4798 1.25745 1.59755 1.19756C1.71994 1.136 1.8509 1.09321 1.98602 1.07063C2.15573 1.04021 2.33761 1.03178 2.49339 1.02746C2.58207 1.02511 2.67095 1.02413 2.75904 1.02354L3.08806 1.02295H29.7463Z" fill="#E5E5E5"/>
<path d="M9.04523 7.32272C9.32324 6.97506 9.51217 6.50811 9.46234 6.03076C9.05523 6.05117 8.55846 6.29955 8.27084 6.64741C8.01264 6.94563 7.78427 7.4322 7.84372 7.88933C8.30085 7.92897 8.75721 7.66057 9.04523 7.32272ZM9.45704 7.9786C8.79351 7.93897 8.22924 8.35511 7.91238 8.35511C7.59533 8.35511 7.10994 7.99842 6.58531 8.00803C5.90215 8.01804 5.26824 8.40435 4.92156 9.01845C4.20858 10.2474 4.73341 12.0705 5.42677 13.0713C5.76364 13.5665 6.16937 14.1117 6.70401 14.0921C7.20922 14.0723 7.40718 13.7648 8.02127 13.7648C8.63498 13.7648 8.81332 14.0921 9.34815 14.0821C9.9028 14.0723 10.2495 13.5867 10.5862 13.0911C10.9725 12.5266 11.1306 11.9816 11.1404 11.9516C11.1306 11.9418 10.0711 11.5353 10.0613 10.3167C10.0513 9.29626 10.8932 8.81087 10.9326 8.78085C10.4573 8.07768 9.71445 7.99842 9.45724 7.97841M15.2348 6.59757C16.6769 6.59757 17.6814 7.5917 17.6814 9.03905C17.6814 10.4917 16.6563 11.4909 15.1987 11.4909H13.6017V14.0303H12.4481V6.59757H15.2348ZM13.6017 10.5225H14.9254C15.93 10.5225 16.5017 9.98177 16.5017 9.04435C16.5017 8.10692 15.93 7.5711 14.9305 7.5711H13.6017V10.5225ZM17.9828 12.4903C17.9828 11.5425 18.7091 10.9604 19.9969 10.8882L21.4802 10.8007V10.3836C21.4802 9.78087 21.0733 9.42026 20.3934 9.42026C19.7495 9.42026 19.3477 9.72927 19.25 10.2135H18.1992C18.261 9.23485 19.0954 8.51363 20.4347 8.51363C21.7482 8.51363 22.5877 9.20915 22.5877 10.2959V14.0303H21.5214V13.1392H21.4959C21.1816 13.7419 20.4965 14.1231 19.7856 14.1231C18.7246 14.1231 17.9828 13.4639 17.9828 12.4903ZM21.4802 12.001V11.5733L20.146 11.6557C19.4817 11.7022 19.1056 11.9957 19.1056 12.4593C19.1056 12.9332 19.4972 13.2422 20.0946 13.2422C20.8724 13.2422 21.4802 12.7066 21.4802 12.001ZM23.5944 16.0239V15.1223C23.6766 15.1429 23.862 15.1429 23.9548 15.1429C24.4698 15.1429 24.748 14.9267 24.9179 14.3703C24.9179 14.3601 25.016 14.0407 25.016 14.0356L23.0586 8.61154H24.2638L25.6341 13.0209H25.6545L27.0249 8.61154H28.1991L26.1697 14.3136C25.7063 15.6271 25.1705 16.0496 24.0476 16.0496C23.9548 16.0496 23.6766 16.0392 23.5944 16.0239Z" fill="black"/>
</g>
<defs>
<clipPath id="clip0_454_735">
<rect width="32.4747" height="20.79" fill="white" transform="translate(0.179932 0.330078)"/>
</clipPath>
</defs>
</svg>
