<svg width="37" height="22" viewBox="0 0 37 22" fill="none" xmlns="http://www.w3.org/2000/svg">
<g clip-path="url(#clip0_454_779)">
<path fill-rule="evenodd" clip-rule="evenodd" d="M3.34607 19.9914C1.77194 19.8837 0.528442 18.5718 0.528442 16.9694V3.84016C0.528442 2.16715 1.88378 0.811035 3.55572 0.811035H33.9484C35.6203 0.811035 36.9758 2.16715 36.9758 3.84016V16.9694C36.9758 18.5718 35.7322 19.8837 34.1581 19.9914H3.34607Z" fill="#0C0E11"/>
<path fill-rule="evenodd" clip-rule="evenodd" d="M15.5267 17.5631H17.9979V3.70264H15.5267V17.5631Z" fill="#E5E5E5"/>
<path fill-rule="evenodd" clip-rule="evenodd" d="M20.1118 17.563H22.5829V8.38232H20.1118V17.563Z" fill="#E5E5E5"/>
<path fill-rule="evenodd" clip-rule="evenodd" d="M33.6583 17.5631L29.945 12.7045L33.3606 8.3824H30.4429L27.1679 12.5755V3.70264H24.6968V17.5631H27.1679V12.8496L30.4429 17.5631H33.6583Z" fill="#E5E5E5"/>
<path fill-rule="evenodd" clip-rule="evenodd" d="M9.22995 15.1934C8.00499 15.1934 7.01189 14.1991 7.01189 12.9727C7.01189 11.7463 8.00499 10.7521 9.22995 10.7521C10.4549 10.7521 11.448 11.7463 11.448 12.9727C11.448 14.1991 10.4549 15.1934 9.22995 15.1934ZM9.22995 8.27807C8.42752 8.27807 7.67237 8.48029 7.01189 8.83595V3.70264H4.54077V12.9727C4.54077 15.5655 6.64021 17.6674 9.22995 17.6674C11.8197 17.6674 13.9191 15.5655 13.9191 12.9727C13.9191 10.38 11.8197 8.27807 9.22995 8.27807Z" fill="#E5E5E5"/>
<path fill-rule="evenodd" clip-rule="evenodd" d="M13.8655 5.21572C13.8655 6.43521 12.877 7.42364 11.6576 7.42364C10.4383 7.42364 9.44971 6.43521 9.44971 5.21572C9.44971 3.99636 10.4383 3.00781 11.6576 3.00781C12.877 3.00781 13.8655 3.99636 13.8655 5.21572Z" fill="url(#paint0_linear_454_779)"/>
</g>
<defs>
<linearGradient id="paint0_linear_454_779" x1="9.44971" y1="3.00781" x2="672.174" y2="587.83" gradientUnits="userSpaceOnUse">
<stop stop-color="#FF0000"/>
<stop offset="1" stop-color="#FF00FF"/>
</linearGradient>
<clipPath id="clip0_454_779">
<rect width="36.96" height="20.79" fill="white" transform="translate(0.0246582 0.330078)"/>
</clipPath>
</defs>
</svg>
