<svg width="24" height="16" viewBox="0 0 24 16" fill="none" xmlns="http://www.w3.org/2000/svg">
<g clip-path="url(#clip0_776_6685)">
<path d="M24 0H16V16H24V0Z" fill="#D03C3E"/>
<path d="M16 0H8V16H16V0Z" fill="white"/>
<path d="M8 0H0V16H8V0Z" fill="#153569"/>
<g clip-path="url(#clip1_776_6685)">
<path d="M24 0H0V17H24V0Z" fill="#153569"/>
<path d="M25.8222 18.943L-2.7998 -0.138L-1.7268 -3L26.8952 16.081L25.8222 18.943Z" fill="white"/>
<path d="M-2.62109 -0.614969L11.6899 8.92603L12.0469 7.97203L-2.26309 -1.56897L-2.62109 -0.614969Z" fill="#D03C3E"/>
<path d="M12.4054 7.01807L12.0474 7.97207L26.3584 17.5121L26.7164 16.5581L12.4054 7.01807Z" fill="#D03C3E"/>
<path d="M26.8952 -0.138L-1.7268 18.943L-2.7998 16.081L25.8222 -3L26.8952 -0.138Z" fill="white"/>
<path d="M-1.9057 18.466L12.4053 8.92605L12.0473 7.97205L-2.2627 17.512L-1.9057 18.466Z" fill="#D03C3E"/>
<path d="M11.6899 7.01805L12.0469 7.97206L26.3579 -1.56895L26.0009 -2.52295L11.6899 7.01805Z" fill="#D03C3E"/>
<path d="M26.0484 5.30493H14.0474V-2.69507H10.0474V5.30493H-1.95264V10.6379H10.0474V18.6379H14.0474V10.6379H26.0484V5.30493Z" fill="white"/>
<path d="M26.0484 6.37193H13.2474V-2.69507H10.8474V6.37193H-1.95264V9.57193H10.8474V18.6379H13.2474V9.57193H26.0484V6.37193Z" fill="#D03C3E"/>
</g>
</g>
<defs>
<clipPath id="clip0_776_6685">
<rect width="24" height="16" fill="white"/>
</clipPath>
<clipPath id="clip1_776_6685">
<rect width="29.695" height="21.943" fill="white" transform="translate(-2.7998 -3)"/>
</clipPath>
</defs>
</svg>
