<?xml version="1.0" encoding="utf-8"?>
<!-- Generator: Adobe Illustrator 25.4.1, SVG Export Plug-In . SVG Version: 6.00 Build 0)  -->
<svg version="1.1" id="Warstwa_1" xmlns="http://www.w3.org/2000/svg" xmlns:xlink="http://www.w3.org/1999/xlink" x="0px" y="0px"
	 viewBox="0 0 200 44" style="enable-background:new 0 0 200 44;" xml:space="preserve">
<style type="text/css">
	.st0{display:none;}
	.st1{display:inline;fill:#E2DCD5;}
	.st2{display:inline;}
	.st3{display:none;fill:#E2DCD5;}
	.st4{fill:#F47B25;}
	.st5{fill:#DD3B10;}
</style>
<g class="st0">
	<path class="st1" d="M198.9,12.2c-0.6-0.7-1.5-1.1-2.3-1.2c-0.6-0.1-1.2-0.1-1.8,0c-0.1,0-0.2,0-0.3,0c-0.2,0-0.4-0.1-0.5-0.2
		c-0.1-0.2,0-0.4,0-0.5c0.1-0.3,0.2-0.6,0.3-0.9s0.1-0.6,0.1-0.9c0.1-1.3-0.2-2.6-0.8-3.7c-0.6-1.1-1.5-2-2.6-2.8
		c-1.1-0.7-2.4-1-3.7-1s-2.6,0.2-3.7,0.8c-1.2,0.6-2.2,1.4-3,2.5c-0.7,0.9-1.2,2-1.6,3.1c-0.3,0.8-0.6,1.5-0.8,2.3
		c-0.2-0.3-0.4-0.6-0.7-0.8c-0.9-0.9-2.2-1.3-3.5-1.3c-0.7,0-1.5,0.1-2.1,0.4c-0.6,0.3-1.1,0.8-1.4,1.4c-0.3,0.6-0.4,1.3-0.5,1.9
		c0,0.3,0,0.7,0.3,0.9c0.2,0.2,0.5,0.2,0.8,0.1s0.6-0.3,0.8-0.5c0.3-0.2,0.6-0.4,1-0.2c0.1,0.1,0.2,0.2,0.3,0.3
		c0,0.2-0.2,0.3-0.3,0.5c-0.2,0.3-0.5,0.5-0.7,0.8c-0.3,0.5-0.7,1.2-0.6,1.8c0,0.6,0.4,1.1,1,1.1s1.1-0.6,1.4-1.1
		c0.3-0.5,0.8-1.2,1.4-1.2c0.7,0,1,0.8,1.1,1.5c0,0.4,0,0.8-0.1,1.3c0,0.4,0,0.8,0,1.2c0,0.2,0,0.3,0,0.5c-0.2,0.6-0.5,1.2-0.9,1.7
		c-0.8,1.1-2.2,1.9-3.6,1.8c-1.4-0.1-2.5-1-3.4-2c-1-1.1-1.8-2.3-2.9-3.3c-1.1-0.9-2.4-1.4-3.8-1.3c-1.3,0.1-2.5,0.7-3.2,1.8
		c-0.2,0.3-0.3,0.5-0.4,0.8c0,0.1,0.1,0.2,0.2,0.1c1.4-0.9,3.2-0.5,4.5,0.3c1.5,0.9,2.6,2.4,3.6,3.8c0.5,0.7,1.1,1.4,1.7,2
		c0.5,0.6,1.1,1.1,1.8,1.5c1.3,0.9,2.7,1.6,4.3,2.1c3.1,0.9,6.5,0.6,9.3-1c3.9-2.1,6.1-5.1,7.3-6.4c0.2-0.2,0.4-0.5,0.7-0.7
		c0.2-0.3,0.5-0.6,0.8-0.7s0.5-0.2,0.8-0.1s0.4,0.5,0.4,0.8s0,0.6,0.1,0.8c0.1,0.2,0.3,0.4,0.6,0.3s0.5-0.4,0.6-0.7
		c0.2-0.3,0.5-0.7,0.7-1c0.1-0.2,0.2-0.4,0.4-0.5c0.1-0.2,0.2-0.4,0.4-0.5c0.1-0.1,0.3-0.2,0.4-0.1c0.1,0.1,0.1,0.2,0.2,0.4
		c0.1,0.4,0,0.8-0.1,1.2c0,0.4-0.1,0.9-0.1,1.3c0,0.1,0.1,0.2,0.1,0.1c1-0.2,1.6-1,2-1.9c0.2-0.5,0.4-1,0.5-1.5
		c0.1-0.6,0.3-1.1,0.3-1.7C199.8,14.2,199.6,13.1,198.9,12.2z"/>
	<g class="st2">
		<path d="M185.8,6.7c-0.4-0.1-0.9,0-1.2,0.2c-0.2,0-0.3,0-0.5,0.2c-0.6,0.5-1.1,1.1-1.4,1.8c-0.3,0.7-0.6,1.8-0.1,2.5
			s1.5,0.6,2.1,0.2c0.7-0.4,1.2-1,1.6-1.7c0.2-0.3,0.3-0.7,0.3-1.1c0.1-0.3,0.1-0.7,0-1.1C186.5,7.2,186.2,6.8,185.8,6.7z"/>
		<path d="M190.8,8.4c-0.2-0.6-0.7-1-1.3-1.1c-0.7-0.1-1.3,0.3-1.7,0.8c-0.4,0.6-0.4,1.4-0.4,2.1c0,0.1,0,0.2,0,0.3
			c-0.1,0.6,0,1.2,0.2,1.8c0.1,0.3,0.3,0.7,0.6,0.9s0.8,0.3,1.2,0.2c0.6-0.2,1-0.8,1.2-1.4C191,11,191.3,9.6,190.8,8.4z"/>
		<path d="M185.6,12.2c-0.5-0.2-1,0-1.4,0.3c-0.3,0.2-0.5,0.4-0.7,0.7s-0.3,0.7-0.3,1.1c0,0.3,0,0.7,0.2,1c0,0.2,0,0.3,0.2,0.4
			c0.1,0.1,0.3,0.2,0.5,0.3c0.1,0,0.1,0,0.2,0c0.2,0.1,0.4,0.1,0.6,0.1c0.4-0.1,0.8-0.3,1.1-0.6c0.2-0.3,0.4-0.6,0.5-1
			s0.2-0.7,0.2-1.1c0-0.3-0.2-0.6-0.4-0.8C185.9,12.4,185.8,12.2,185.6,12.2z"/>
	</g>
</g>
<g class="st0">
	<path class="st1" d="M156.9,12.6c-3.7,3.6-2.5,8.7-2.5,8.7s0.8-5.6,3.3-6.8s5.8-1.1,5.8-1.1S160.6,9,156.9,12.6z"/>
</g>
<path class="st3" d="M179.3,29.2c0,0,6.8-0.6,10.4-5.3C188.7,30.5,179.3,29.2,179.3,29.2z"/>
<g>
	<polygon class="st4" points="152.4,2.1 143.5,25.6 142.8,27.4 142.2,25.6 133.3,2.1 124.7,2.1 124.9,12.4 136,41.9 149.6,41.9 
		164.6,2.1 	"/>
	<g>
		<g>
			<defs>
				<path id="SVGID_1_" d="M157.8,6.8c-4.2,4.2-6.3,9.3-6.3,15.2c0,5.9,2.1,11,6.3,15.2c4.2,4.1,9,6.2,14.8,6.3
					c-0.1-0.5-0.1-1-0.1-1.5c0-4.5,2.1-8.7,5.8-11.4c-1.6,1-3.4,1.5-5.2,1.5c-2.7,0-5.2-1-7.1-2.9c-1.9-1.9-2.9-4.5-2.9-7.1
					c0-2.7,1-5.2,2.9-7.1c3.9-3.9,10.2-3.9,14.2,0c0,0,0,0,0,0c2,1.8,3.1,4.4,3,7.1c0,2.7-1.1,5.3-3,7.1c-0.3,0.3-0.7,0.6-1,0.9
					c4.3-2.8,9.7-3,14.3-0.6c0.9-2.4,1.3-4.9,1.3-7.4c0-5.9-2.1-11-6.4-15.2c-4.3-4.3-9.3-6.4-15.2-6.4
					C167.1,0.5,162.1,2.5,157.8,6.8"/>
			</defs>
			<use xlink:href="#SVGID_1_"  style="overflow:visible;fill:#F47B25;"/>
			<clipPath id="SVGID_00000067233705376801083060000000120470573998635406_">
				<use xlink:href="#SVGID_1_"  style="overflow:visible;"/>
			</clipPath>
		</g>
	</g>
	<path class="st4" d="M23.4,26.5h7.8l-0.7,1.1c-0.4,0.6-0.8,1.1-1.3,1.6c-1.9,1.9-4.4,2.9-7.1,2.9c-5.5,0.1-9.9-4.3-10-9.8
		c0-0.1,0-0.2,0-0.3c0-2.7,1-5.2,2.9-7.1c1.9-1.9,4.4-3,7.1-2.9c2.7,0,4.5,0.6,6.2,2.1l8.5-7.8c-4.2-4-9-5.9-14.7-5.9
		c-5.9,0-11,2.1-15.2,6.4C2.6,10.9,0.5,16.1,0.5,22c0,5.9,2.1,11,6.3,15.2c4.2,4.2,9.4,6.3,15.2,6.3c5.9,0,10.9-2.1,15.2-6.3
		c4-4,5.9-9,5.9-15.2v-2.3H23.4V26.5z"/>
	<g>
		<g>
			<defs>
				<path id="SVGID_00000122706817509498622860000012956088104496356493_" d="M47.8,26.4l2.9-8.4l0.7-1.9L52,18l2.9,8.4l0.3,0.9
					h-7.8L47.8,26.4z M44.1,2.1L30.2,41.9L42.4,42l1.7-5l0.2-0.5h14.2l0.2,0.5l1.7,5h12.1L58.6,2.1L44.1,2.1z"/>
			</defs>
			<use xlink:href="#SVGID_00000122706817509498622860000012956088104496356493_"  style="overflow:visible;fill:#F47B25;"/>
			<clipPath id="SVGID_00000034079674952567944810000009694980524389825438_">
				<use xlink:href="#SVGID_00000122706817509498622860000012956088104496356493_"  style="overflow:visible;"/>
			</clipPath>
		</g>
	</g>
	<polygon class="st4" points="87.7,13.3 87.2,14 86.6,13.3 78.1,2.1 66.1,2.1 66.1,41.9 77.6,41.9 77.6,22.4 77.6,20.3 78.8,22 
		87.2,33.1 95.5,22.1 96.7,20.5 96.7,22.6 96.7,41.9 108.2,41.9 108.2,2.1 96.3,2.1 	"/>
	<polygon class="st4" points="113.4,2.1 124.7,2.1 124.9,12.4 113.4,12.4 	"/>
	<g>
		<g>
			<defs>
				<rect id="SVGID_00000128474581172894620840000017244359649560468912_" x="113.4" y="17.7" width="11.5" height="24.2"/>
			</defs>
			<use xlink:href="#SVGID_00000128474581172894620840000017244359649560468912_"  style="overflow:visible;fill:#F47B25;"/>
			<clipPath id="SVGID_00000086657500215220308460000007574205672839202727_">
				<use xlink:href="#SVGID_00000128474581172894620840000017244359649560468912_"  style="overflow:visible;"/>
			</clipPath>
		</g>
	</g>
	<path class="st5" d="M157.8,6.8c-4.2,4.2-6.3,9.3-6.3,15.2c0,3.2,0.7,6.4,2.1,9.3l11-29.3C162.1,3.2,159.7,4.8,157.8,6.8"/>
	<path class="st4" d="M177.3,41.5c-0.5,0-1-0.4-1-1c0,0,0,0,0,0c0-0.5,0.4-1,1-1s1,0.4,1,1C178.3,41.1,177.8,41.5,177.3,41.5
		C177.3,41.5,177.3,41.5,177.3,41.5"/>
	<g>
		<g>
			<defs>
				<path id="SVGID_00000173846098780828151310000017074187857002465173_" d="M187.4,38.9c-0.3-0.3-0.5-0.8-0.5-1.2
					c0-0.5,0.2-0.9,0.5-1.2c0.3-0.3,0.8-0.5,1.2-0.5c0.5,0,0.9,0.2,1.2,0.5c0.3,0.3,0.5,0.8,0.5,1.2c0,0.5-0.2,0.9-0.5,1.2
					c-0.3,0.3-0.8,0.5-1.2,0.5C188.1,39.4,187.7,39.2,187.4,38.9 M185.7,34.8c-1.6,1.6-1.6,4.2,0,5.8s4.2,1.6,5.8,0
					c0.8-0.8,1.2-1.8,1.2-2.9c0-2.3-1.8-4.1-4.1-4.1C187.5,33.6,186.5,34,185.7,34.8"/>
			</defs>
			<use xlink:href="#SVGID_00000173846098780828151310000017074187857002465173_"  style="overflow:visible;fill:#F47B25;"/>
			<clipPath id="SVGID_00000134959336366752836360000018408861821820217768_">
				<use xlink:href="#SVGID_00000173846098780828151310000017074187857002465173_"  style="overflow:visible;"/>
			</clipPath>
		</g>
	</g>
	<path class="st4" d="M183.9,39c-0.4,0.3-0.8,0.4-1.3,0.4c-0.5,0-0.9-0.1-1.3-0.5c-0.3-0.3-0.5-0.7-0.4-1.2c0-0.5,0.2-0.9,0.5-1.2
		c0.3-0.3,0.8-0.5,1.2-0.5c0.5,0,0.9,0.2,1.2,0.5c0,0,0,0,0,0l0.1-0.1c0.2-0.8,0.6-1.4,1.1-2c-0.7-0.5-1.6-0.8-2.4-0.8
		c-2.3,0.1-4.1,1.9-4,4.2c0.1,2.2,1.8,3.9,4,4c1.1,0,1.7-0.1,2.5-0.8C184.5,40.5,184.1,39.8,183.9,39"/>
	<path class="st4" d="M197.1,33.9L197.1,33.9l-1.6,2.1l-1.6-2.1l0,0l0,0h-2.3c0.2,0.1,0.3,0.3,0.5,0.4c1.9,1.9,1.9,4.9,0.1,6.8
		c0,0,0,0-0.1,0.1c-0.1,0.1-0.3,0.3-0.4,0.4h2.3v-3.7l1.7,2.2l1.6-2.1v3.7h2.4v-7.6L197.1,33.9z"/>
	<polygon class="st5" points="66.1,41.9 72.5,41.9 66.1,23.7 	"/>
	<polygon class="st5" points="124.9,12.4 124.9,2.1 121.1,2.1 	"/>
	<path class="st5" d="M30.3,41.9c2.6-1.1,4.9-2.7,6.9-4.7c4-4,5.9-9,5.9-15.2v-2.3H38l-7.7,22.3L30.3,41.9z"/>
</g>
</svg>