<svg width="148" height="33" viewBox="0 0 148 33" fill="none" xmlns="http://www.w3.org/2000/svg">
<g clip-path="url(#clip0_272_1174)">
<path d="M112.953 1.94629L106.331 19.4148L105.841 20.7019L105.356 19.4148L98.7677 1.95179H92.394L92.5538 9.62453L100.784 31.5262H110.904L122.059 1.94629H112.953Z" fill="#F47B25"/>
<path d="M116.98 5.44975C115.469 6.91598 114.273 8.67461 113.466 10.6181C112.659 12.5615 112.258 14.6489 112.286 16.7526C112.266 18.8534 112.672 20.9367 113.478 22.8771C114.285 24.8176 115.476 26.5752 116.98 28.0445C118.406 29.516 120.112 30.6877 121.999 31.4907C123.885 32.2936 125.914 32.7114 127.964 32.7196C127.913 32.3403 127.884 31.9583 127.876 31.5756C127.876 29.9258 128.264 28.2991 129.01 26.8268C129.755 25.3544 130.837 24.0778 132.168 23.0998C131.014 23.8257 129.676 24.2073 128.312 24.1998C127.33 24.2181 126.355 24.038 125.446 23.6703C124.536 23.3026 123.71 22.7549 123.018 22.0603C122.322 21.3667 121.772 20.5414 121.4 19.6328C121.029 18.7242 120.842 17.7506 120.853 16.7691C120.834 15.7931 121.015 14.8236 121.385 13.9202C121.756 13.0169 122.307 12.1988 123.007 11.5164C123.695 10.8245 124.514 10.2748 125.416 9.89891C126.318 9.523 127.285 9.3282 128.262 9.32565C129.239 9.32309 130.207 9.51283 131.111 9.88402C132.014 10.2552 132.836 10.8006 133.528 11.4889V11.5164C134.254 12.1832 134.829 12.9963 135.215 13.9019C135.602 14.8076 135.791 15.7849 135.771 16.7691C135.787 17.7589 135.595 18.7411 135.208 19.6525C134.821 20.5638 134.247 21.3841 133.523 22.0603C133.293 22.2768 133.05 22.4788 132.796 22.6653C134.366 21.6578 136.176 21.0855 138.04 21.0072C139.905 20.9289 141.757 21.3474 143.406 22.2198C144.045 20.4569 144.366 18.5945 144.353 16.7196C144.384 14.613 143.979 12.5227 143.165 10.579C142.351 8.63536 141.145 6.87995 139.621 5.42225C138.163 3.89951 136.406 2.69348 134.46 1.87958C132.514 1.06569 130.421 0.661431 128.312 0.692102C126.199 0.660986 124.103 1.06441 122.153 1.87724C120.204 2.69007 118.443 3.89492 116.98 5.41675" fill="#F47B25"/>
<path d="M17.0111 20.0468H22.7899L22.239 20.8554C21.9494 21.2836 21.6151 21.68 21.2419 22.0379C20.5597 22.7346 19.7422 23.2847 18.8394 23.6545C17.9366 24.0243 16.9676 24.206 15.992 24.1885C14.0443 24.2105 12.1674 23.4602 10.7732 22.1021C9.37892 20.7441 8.58122 18.8893 8.55508 16.9447V16.7522C8.53527 15.7767 8.71563 14.8074 9.08511 13.904C9.4546 13.0007 10.0054 12.1824 10.7035 11.4996C11.3907 10.7925 12.2151 10.2328 13.1263 9.85453C14.0374 9.47626 15.0163 9.28741 16.003 9.2995C18.0082 9.2995 19.3358 9.73401 20.5808 10.8395L26.927 5.06437C25.4865 3.6515 23.7787 2.53915 21.9032 1.79219C20.0277 1.04523 18.0219 0.678614 16.003 0.71373C13.8945 0.693007 11.8038 1.10123 9.85848 1.91351C7.91313 2.72579 6.15385 3.92512 4.68787 5.43838C3.17167 6.90051 1.97303 8.65851 1.16652 10.603C0.360011 12.5475 -0.0371155 14.6369 -0.000138214 16.7412C-0.0293982 18.8428 0.371283 20.9283 1.17738 22.8699C1.98348 24.8115 3.17803 26.5685 4.68787 28.0331C6.16109 29.5338 7.9227 30.7219 9.86705 31.5262C11.8114 32.3305 13.8985 32.7344 16.003 32.7137C18.1101 32.747 20.2017 32.3489 22.1488 31.5439C24.0958 30.7389 25.857 29.544 27.3236 28.0331C30.2929 25.063 31.7307 21.3669 31.7307 16.7412V15.0087H17.0001L17.0111 20.0468Z" fill="#F47B25"/>
<path d="M35.1463 19.9921L37.3498 13.7439L37.8401 12.3304L38.3304 13.7439L40.534 19.9921L40.7708 20.6796H34.9645L35.1463 19.9921ZM32.3919 1.93506L22.1069 31.5315L31.1359 31.5755L32.436 27.8409L32.5572 27.4944H43.1066L43.2333 27.8409L44.5223 31.5315H53.5072L43.2223 1.95156L32.3919 1.93506Z" fill="#F47B25"/>
<path d="M64.8773 10.2349L64.4641 10.774L64.0509 10.2349L57.7213 1.95169H48.8135V31.5261H57.3302V17.0112V15.4711L58.2612 16.6976L64.5082 24.9314L70.623 16.8352L71.5595 15.5976V17.1432V31.5261H80.0651V1.95169L71.2179 1.92969L64.8773 10.2349Z" fill="#F47B25"/>
<path d="M83.9931 1.95166H92.3941L92.5483 9.6299H83.9931V1.95166Z" fill="#F47B25"/>
<path d="M92.5483 13.5513H83.9931V31.5313H92.5483V13.5513Z" fill="#F47B25"/>
<path d="M116.98 5.44977C115.469 6.916 114.273 8.67463 113.466 10.6181C112.659 12.5615 112.258 14.649 112.286 16.7526C112.269 19.1536 112.804 21.5265 113.851 23.6883L122.059 1.95166C120.156 2.78026 118.432 3.96805 116.98 5.44977" fill="#DD3B10"/>
<path d="M131.479 31.2181C131.287 31.2195 131.103 31.1452 130.965 31.0113C130.828 30.8773 130.749 30.6946 130.746 30.503V30.503C130.746 30.4068 130.764 30.3113 130.801 30.2222C130.837 30.1331 130.891 30.0522 130.959 29.9841C131.028 29.9161 131.109 29.8622 131.198 29.8257C131.287 29.7892 131.383 29.7708 131.479 29.7715C131.576 29.7708 131.672 29.7892 131.761 29.8256C131.851 29.862 131.932 29.9158 132.001 29.9838C132.069 30.0518 132.124 30.1327 132.161 30.2218C132.198 30.3109 132.217 30.4065 132.217 30.503C132.217 30.5996 132.198 30.6951 132.161 30.7843C132.124 30.8734 132.069 30.9543 132.001 31.0223C131.932 31.0903 131.851 31.144 131.761 31.1805C131.672 31.2169 131.576 31.2353 131.479 31.2346" fill="#F47B25"/>
<path d="M138.977 29.2928C138.859 29.1731 138.766 29.0313 138.703 28.8755C138.641 28.7197 138.61 28.553 138.613 28.3852C138.61 28.2182 138.64 28.0522 138.703 27.8973C138.765 27.7423 138.858 27.6015 138.977 27.4832C139.094 27.3602 139.236 27.2634 139.394 27.1989C139.551 27.1345 139.721 27.1039 139.891 27.1092C140.058 27.1075 140.224 27.1398 140.378 27.2041C140.533 27.2684 140.673 27.3634 140.789 27.4832C140.914 27.597 141.014 27.7365 141.08 27.8922C141.147 28.0479 141.179 28.216 141.175 28.3852C141.178 28.5552 141.146 28.7239 141.08 28.8804C141.013 29.0369 140.914 29.1774 140.789 29.2928C140.672 29.4119 140.532 29.506 140.378 29.5693C140.224 29.6327 140.058 29.664 139.891 29.6613C139.722 29.6643 139.553 29.6333 139.396 29.5699C139.239 29.5066 139.096 29.4124 138.977 29.2928V29.2928ZM137.737 26.2347C137.454 26.5167 137.229 26.8519 137.075 27.2209C136.922 27.59 136.843 27.9856 136.843 28.3852C136.843 28.7848 136.922 29.1805 137.075 29.5495C137.229 29.9186 137.454 30.2537 137.737 30.5358C138.308 31.1061 139.083 31.4265 139.891 31.4265C140.699 31.4265 141.474 31.1061 142.045 30.5358C142.609 29.9676 142.927 29.2015 142.932 28.4017C142.933 27.5946 142.614 26.8198 142.044 26.2474C141.474 25.6751 140.7 25.3521 139.891 25.3491C139.487 25.3475 139.087 25.4265 138.715 25.5814C138.342 25.7363 138.004 25.964 137.721 26.2512" fill="#F47B25"/>
<path d="M136.376 29.3425C136.094 29.5511 135.746 29.6507 135.396 29.623C135.22 29.6304 135.043 29.6026 134.878 29.5412C134.712 29.4798 134.561 29.3861 134.432 29.2655C134.317 29.1513 134.229 29.0132 134.174 28.8611C134.118 28.709 134.098 28.5466 134.112 28.3854C134.107 28.2171 134.137 28.0496 134.202 27.894C134.267 27.7385 134.364 27.5985 134.487 27.4834C134.604 27.3612 134.745 27.2645 134.902 27.1992C135.058 27.1339 135.226 27.1014 135.396 27.1039C135.565 27.1014 135.734 27.1339 135.89 27.1992C136.046 27.2645 136.188 27.3612 136.305 27.4834L136.354 27.4064C136.516 26.8644 136.807 26.3698 137.203 25.9654C136.675 25.5867 136.045 25.3759 135.396 25.3604C134.995 25.3703 134.6 25.4591 134.234 25.6215C133.867 25.7839 133.536 26.0169 133.26 26.307C132.984 26.5971 132.768 26.9388 132.624 27.3124C132.48 27.686 132.411 28.0843 132.421 28.4844C132.441 29.266 132.76 30.0102 133.314 30.563C133.868 31.1158 134.613 31.435 135.396 31.4545C136.06 31.5214 136.723 31.3237 137.241 30.9045C136.826 30.4747 136.526 29.9468 136.371 29.37" fill="#F47B25"/>
<path d="M146.232 25.5305L145.02 27.1091L143.802 25.5195H142.062C142.192 25.6169 142.315 25.7235 142.431 25.8385C142.771 26.1668 143.043 26.5595 143.23 26.9938C143.416 27.428 143.515 27.8951 143.519 28.3676C143.523 28.8402 143.433 29.3089 143.254 29.7463C143.074 30.1837 142.81 30.5811 142.475 30.9152L142.431 30.9537C142.328 31.0566 142.219 31.1539 142.106 31.2452H143.802V28.4346L145.031 30.0517L146.237 28.4566V31.2067H148V25.5305H146.232Z" fill="#F47B25"/>
<path d="M48.8135 31.5261H53.5181L48.8135 18.0122V31.5261Z" fill="#DD3B10"/>
<path d="M92.5481 9.6134V1.95166H89.6725L92.5481 9.6134Z" fill="#DD3B10"/>
<path d="M22.195 31.5373C24.1123 30.7108 25.8532 29.5252 27.3237 28.0447C30.293 25.0746 31.7308 21.3785 31.7308 16.7528V15.0093H27.8746L22.1234 31.5098L22.195 31.5373Z" fill="#DD3B10"/>
</g>
<defs>
<clipPath id="clip0_272_1174">
<rect width="148" height="32" fill="white" transform="translate(0 0.725098)"/>
</clipPath>
</defs>
</svg>
