<svg width="31" height="22" viewBox="0 0 31 22" fill="none" xmlns="http://www.w3.org/2000/svg">
<g clip-path="url(#clip0_454_863)">
<path d="M28.6563 0.621582H2.72875C1.72639 0.621582 0.913818 1.43415 0.913818 2.43651V19.0301C0.913818 20.0325 1.72639 20.8451 2.72875 20.8451H28.6563C29.6586 20.8451 30.4712 20.0325 30.4712 19.0301V2.43651C30.4712 1.43415 29.6586 0.621582 28.6563 0.621582Z" fill="#E5E5E5" stroke="#F3F3F3" stroke-width="0.518551"/>
<path fill-rule="evenodd" clip-rule="evenodd" d="M15.1311 12.869V10.5298L16.3966 10.5293C16.9183 10.5297 17.3568 10.3657 17.712 10.0376C18.071 9.72606 18.2717 9.27824 18.2615 8.81149C18.2686 8.34729 18.0683 7.90278 17.712 7.59227C17.3599 7.26232 16.8864 7.08228 16.3966 7.09218H14.3652V12.869H15.1311ZM15.1311 9.81997V7.80343L16.4156 7.80296C16.7019 7.79513 16.9779 7.90678 17.1735 8.10948C17.3703 8.29486 17.4813 8.54947 17.4813 8.81538C17.4813 9.08129 17.3703 9.33595 17.1735 9.52128C16.9755 9.71973 16.7004 9.82816 16.4156 9.81997H15.1311Z" fill="#5F6368"/>
<path fill-rule="evenodd" clip-rule="evenodd" d="M21.3671 9.22733C21.0395 8.93414 20.5926 8.7876 20.0265 8.7876C19.2993 8.7876 18.7501 9.04568 18.379 9.56195L19.0536 9.97358C19.3029 9.62386 19.6414 9.44901 20.0693 9.44901C20.3421 9.44595 20.6061 9.54256 20.8086 9.71959C21.0105 9.88138 21.1267 10.1226 21.125 10.3764V10.5461C20.8306 10.3847 20.4561 10.304 20.0013 10.304C19.4685 10.3047 19.0425 10.4258 18.7235 10.6673C18.4044 10.9088 18.2448 11.2341 18.2448 11.643C18.2379 12.0155 18.4047 12.3711 18.6987 12.611C19.0012 12.8692 19.3772 12.9982 19.8267 12.9982C20.3532 12.9982 20.775 12.7723 21.0921 12.3206H21.1254V12.8692H21.858V10.4331C21.8584 9.92239 21.6947 9.52047 21.3671 9.22733ZM19.2896 12.1432C19.1291 12.0311 19.0345 11.8508 19.0355 11.6592C19.0355 11.4439 19.1397 11.2647 19.3495 11.1171C19.5572 10.9718 19.8167 10.8991 20.1278 10.8991C20.555 10.8991 20.888 10.9913 21.1268 11.1757C21.1268 11.4873 21 11.7587 20.7463 11.9902C20.5177 12.2116 20.2079 12.3362 19.8847 12.3368C19.6692 12.3407 19.459 12.2723 19.2896 12.1432Z" fill="#5F6368"/>
<path fill-rule="evenodd" clip-rule="evenodd" d="M26.0635 8.9165L23.506 14.6113H22.7153L23.6644 12.6187L21.9827 8.9165H22.8152L24.0307 11.7558H24.0473L25.2295 8.9165H26.0635Z" fill="#5F6368"/>
<path fill-rule="evenodd" clip-rule="evenodd" d="M12.036 10.0254C12.0364 9.79924 12.0166 9.57346 11.9771 9.35059H8.74683V10.6288H10.597C10.5205 11.0413 10.2733 11.4056 9.91284 11.6373V12.467H11.017C11.6636 11.8894 12.036 11.0353 12.036 10.0254Z" fill="#4285F4"/>
<path fill-rule="evenodd" clip-rule="evenodd" d="M8.7468 13.2686C9.67117 13.2686 10.4495 12.9744 11.017 12.4675L9.91281 11.6378C9.60552 11.8396 9.20971 11.9549 8.7468 11.9549C7.85339 11.9549 7.09506 11.3713 6.82391 10.585H5.6864V11.44C6.26782 12.561 7.45198 13.2685 8.7468 13.2686Z" fill="#34A853"/>
<path fill-rule="evenodd" clip-rule="evenodd" d="M6.82389 10.5853C6.68052 10.1733 6.68052 9.72704 6.82389 9.315V8.45996H5.68639C5.20008 9.39755 5.20008 10.5028 5.68639 11.4404L6.82389 10.5853Z" fill="#FBBC04"/>
<path fill-rule="evenodd" clip-rule="evenodd" d="M8.7468 7.94477C9.23528 7.93699 9.70726 8.11584 10.0608 8.44258L11.0384 7.49534C10.4185 6.93121 9.59722 6.62148 8.7468 6.63108C7.45198 6.63113 6.26782 7.33864 5.6864 8.45959L6.82391 9.31463C7.09506 8.5283 7.85339 7.94477 8.7468 7.94477Z" fill="#EA4335"/>
</g>
<defs>
<clipPath id="clip0_454_863">
<rect width="30.0759" height="20.79" fill="white" transform="translate(0.654541 0.330078)"/>
</clipPath>
</defs>
</svg>
