<svg width="24" height="24" viewBox="0 0 24 24" fill="none" xmlns="http://www.w3.org/2000/svg">
<path d="M12 24C18.6274 24 24 18.6274 24 12C24 5.37258 18.6274 0 12 0C5.37258 0 0 5.37258 0 12C0 18.6274 5.37258 24 12 24Z" fill="#EAD93B"/>
<path fill-rule="evenodd" clip-rule="evenodd" d="M5.12012 15.44C5.12012 16.4 5.92012 17.12 6.80012 17.12H17.1201C18.0801 17.12 18.8001 16.32 18.8001 15.44V11.12H5.12012V15.44ZM17.1201 6.88H6.88012C5.92012 6.88 5.20012 7.68 5.20012 8.56V10.24H18.8801V8.56C18.8801 7.6 18.0801 6.88 17.1201 6.88Z" fill="#333333"/>
</svg>
