<svg width="24" height="24" viewBox="0 0 24 24" fill="none" xmlns="http://www.w3.org/2000/svg">
<circle cx="12" cy="12" r="12" fill="black"/>
<path fill-rule="evenodd" clip-rule="evenodd" d="M13.2871 3.87097L13.2808 7.46869L13.2745 11.0664L12.9785 10.2312C12.9784 10.2309 12.978 10.2299 12.9779 10.2296L12.5954 18.2391C12.9715 19.3011 13.173 19.868 13.1752 19.8703C13.1782 19.8732 13.3925 19.8862 13.6515 19.899C14.4361 19.9379 15.4084 20.0214 16.146 20.113C16.3168 20.1342 16.4638 20.1451 16.4727 20.1372C16.4815 20.1293 16.4863 16.4661 16.4834 11.9969L16.478 3.87097H13.2871ZM7.51579 3.86026V11.9944C7.51579 16.4682 7.52017 20.1329 7.52553 20.1383C7.53089 20.1436 7.80795 20.1175 8.14121 20.0802C8.47448 20.0428 8.93507 19.9964 9.16475 19.977C9.517 19.9473 10.5687 19.8797 10.6905 19.8789C10.7259 19.8787 10.7282 19.6959 10.7333 16.4337L10.7388 12.9886L10.9932 13.7086C11.0326 13.8199 11.0449 13.8546 11.0832 13.963L11.4656 5.95552C11.3846 5.72644 11.427 5.8467 11.3342 5.58417C11.0218 4.7008 10.7566 3.95154 10.745 3.91915L10.7239 3.86026H7.51579Z" fill="#B1060F"/>
<path fill-rule="evenodd" clip-rule="evenodd" d="M7.51578 3.86026V8.42618L10.7322 16.9583C10.7326 16.7628 10.733 16.6572 10.7333 16.4337L10.7387 12.9886L10.9932 13.7086C12.4097 17.7167 13.1707 19.8658 13.1752 19.8703C13.1782 19.8732 13.3925 19.8862 13.6515 19.899C14.4361 19.9379 15.4084 20.0214 16.146 20.113C16.3168 20.1342 16.4638 20.1451 16.4726 20.1372C16.4787 20.1317 16.4827 18.3356 16.4838 15.8018L13.2823 6.5977L13.2808 7.46869L13.2744 11.0664L12.9784 10.2312C12.6892 9.41516 12.4961 8.86941 11.3342 5.58417C11.0217 4.7008 10.7566 3.95154 10.745 3.91915L10.7238 3.86026H7.51578Z" fill="url(#paint0_radial_28_383)"/>
<path fill-rule="evenodd" clip-rule="evenodd" d="M7.51588 3.86023L10.7388 12.9927V12.9886L10.9932 13.7086C12.4097 17.7167 13.1708 19.8658 13.1752 19.8702C13.1782 19.8732 13.3925 19.8861 13.6515 19.899C14.4361 19.9379 15.4085 20.0213 16.1461 20.113C16.316 20.1341 16.4622 20.1449 16.4724 20.1373L13.2745 11.0647V11.0664L12.9785 10.2312C12.6893 9.41513 12.4962 8.86938 11.3342 5.58414C11.0218 4.70077 10.7567 3.95151 10.745 3.91912L10.7239 3.86023L7.51588 3.86023Z" fill="#E50914"/>
<path fill-rule="evenodd" clip-rule="evenodd" d="M13.2871 3.87097L13.2808 7.46869L13.2745 11.0664L12.9785 10.2312C12.9784 10.2309 12.978 10.2299 12.9779 10.2296L12.5954 18.2391C12.9715 19.3011 13.173 19.868 13.1752 19.8703C13.1782 19.8732 13.3925 19.8862 13.6515 19.899C14.4361 19.9379 15.4084 20.0214 16.146 20.113C16.3168 20.1342 16.4638 20.1451 16.4727 20.1372C16.4815 20.1293 16.4863 16.4661 16.4834 11.9969L16.478 3.87097H13.2871ZM7.51579 3.86026V11.9944C7.51579 16.4682 7.52017 20.1329 7.52553 20.1383C7.53089 20.1436 7.80795 20.1175 8.14121 20.0802C8.47448 20.0428 8.93507 19.9964 9.16475 19.977C9.517 19.9473 10.5687 19.8797 10.6905 19.8789C10.7259 19.8787 10.7282 19.6959 10.7333 16.4337L10.7388 12.9886L10.9932 13.7086C11.0326 13.8199 11.0449 13.8546 11.0832 13.963L11.4656 5.95552C11.3846 5.72644 11.427 5.8467 11.3342 5.58417C11.0218 4.7008 10.7566 3.95154 10.745 3.91915L10.7239 3.86026H7.51579Z" fill="#B1060F"/>
<path fill-rule="evenodd" clip-rule="evenodd" d="M7.51578 3.86026V8.42618L10.7322 16.9583C10.7326 16.7628 10.733 16.6572 10.7333 16.4337L10.7387 12.9886L10.9932 13.7086C12.4097 17.7167 13.1707 19.8658 13.1752 19.8703C13.1782 19.8732 13.3925 19.8862 13.6515 19.899C14.4361 19.9379 15.4084 20.0214 16.146 20.113C16.3168 20.1342 16.4638 20.1451 16.4726 20.1372C16.4787 20.1317 16.4827 18.3356 16.4838 15.8018L13.2823 6.5977L13.2808 7.46869L13.2744 11.0664L12.9784 10.2312C12.6892 9.41516 12.4961 8.86941 11.3342 5.58417C11.0217 4.7008 10.7566 3.95154 10.745 3.91915L10.7238 3.86026H7.51578Z" fill="url(#paint1_radial_28_383)"/>
<path fill-rule="evenodd" clip-rule="evenodd" d="M7.51588 3.86023L10.7388 12.9927V12.9886L10.9932 13.7086C12.4097 17.7167 13.1708 19.8658 13.1752 19.8702C13.1782 19.8732 13.3925 19.8861 13.6515 19.899C14.4361 19.9379 15.4085 20.0213 16.1461 20.113C16.316 20.1341 16.4622 20.1449 16.4724 20.1373L13.2745 11.0647V11.0664L12.9785 10.2312C12.6893 9.41513 12.4962 8.86938 11.3342 5.58414C11.0218 4.70077 10.7567 3.95151 10.745 3.91912L10.7239 3.86023L7.51588 3.86023Z" fill="#E50914"/>
<defs>
<radialGradient id="paint0_radial_28_383" cx="0" cy="0" r="1" gradientUnits="userSpaceOnUse" gradientTransform="translate(11.8508 11.9054) rotate(-19.0977) scale(2.03264 74.4538)">
<stop/>
<stop offset="1" stop-opacity="0"/>
</radialGradient>
<radialGradient id="paint1_radial_28_383" cx="0" cy="0" r="1" gradientUnits="userSpaceOnUse" gradientTransform="translate(11.8508 11.9054) rotate(-19.0977) scale(2.03264 74.4538)">
<stop/>
<stop offset="1" stop-opacity="0"/>
</radialGradient>
</defs>
</svg>
