<svg width="24" height="24" viewBox="0 0 24 24" fill="none" xmlns="http://www.w3.org/2000/svg">
<path d="M12 24C18.6274 24 24 18.6274 24 12C24 5.37258 18.6274 0 12 0C5.37258 0 0 5.37258 0 12C0 18.6274 5.37258 24 12 24Z" fill="#F1F1F1"/>
<path d="M7.4402 5.76001C7.3602 5.92001 7.2002 6.16001 7.2002 6.48001V17.6C7.2002 17.92 7.2802 18.16 7.4402 18.32L13.6802 12.08V12V11.92L7.4402 5.76001Z" fill="url(#paint0_linear_771_9108)"/>
<path d="M15.7602 14.16L13.6802 12.08V12V11.92L15.7602 9.83997H15.8402L18.3202 11.2C19.0402 11.6 19.0402 12.24 18.3202 12.64L15.7602 14.16Z" fill="url(#paint1_linear_771_9108)"/>
<path d="M15.8404 14.08L13.6804 12L7.44043 18.24C7.68043 18.48 8.08043 18.48 8.48043 18.24L15.8404 14.08Z" fill="url(#paint2_linear_771_9108)"/>
<path d="M15.8404 9.91996L8.48043 5.75996C8.08043 5.51996 7.68043 5.51996 7.44043 5.75996L13.6804 12L15.8404 9.91996Z" fill="url(#paint3_linear_771_9108)"/>
<path opacity="0.2" d="M15.7604 14.08L8.48043 18.24C8.08043 18.48 7.68043 18.48 7.44043 18.24C7.68043 18.48 8.00043 18.48 8.48043 18.24L15.7604 14.08Z" fill="black"/>
<path opacity="0.12" d="M7.4402 18.1599C7.3602 17.9999 7.2002 17.7599 7.2002 17.4399V17.5199C7.2002 17.8399 7.3602 18.0799 7.4402 18.1599Z" fill="black"/>
<path opacity="0.12" d="M18.3203 12.64L15.8403 14.08L15.9203 14.16L18.3203 12.64C18.6403 12.48 18.8803 12.24 18.8803 12C18.8003 12.24 18.5603 12.48 18.3203 12.64Z" fill="black"/>
<path opacity="0.25" d="M8.4802 5.75997L18.2402 11.28C18.5602 11.44 18.7202 11.68 18.8002 11.92C18.8002 11.68 18.6402 11.36 18.2402 11.2L8.4802 5.75997C7.8402 5.35997 7.2002 5.67997 7.2002 6.47997V6.55997C7.2002 5.75997 7.8402 5.35997 8.4802 5.75997Z" fill="white"/>
<defs>
<linearGradient id="paint0_linear_771_9108" x1="13.1628" y1="6.34145" x2="4.75236" y2="14.7518" gradientUnits="userSpaceOnUse">
<stop stop-color="#00A0FF"/>
<stop offset="0.00657445" stop-color="#00A1FF"/>
<stop offset="0.2601" stop-color="#00BEFF"/>
<stop offset="0.5122" stop-color="#00D2FF"/>
<stop offset="0.7604" stop-color="#00DFFF"/>
<stop offset="1" stop-color="#00E3FF"/>
</linearGradient>
<linearGradient id="paint1_linear_771_9108" x1="19.1939" y1="12.0002" x2="7.0677" y2="12.0002" gradientUnits="userSpaceOnUse">
<stop stop-color="#FFE000"/>
<stop offset="0.4087" stop-color="#FFBD00"/>
<stop offset="0.7754" stop-color="#FFA500"/>
<stop offset="1" stop-color="#FF9C00"/>
</linearGradient>
<linearGradient id="paint2_linear_771_9108" x1="14.68" y1="13.1502" x2="3.27491" y2="24.5554" gradientUnits="userSpaceOnUse">
<stop stop-color="#FF3A44"/>
<stop offset="1" stop-color="#C31162"/>
</linearGradient>
<linearGradient id="paint3_linear_771_9108" x1="5.89523" y1="2.06492" x2="10.9881" y2="7.1578" gradientUnits="userSpaceOnUse">
<stop stop-color="#32A071"/>
<stop offset="0.0685" stop-color="#2DA771"/>
<stop offset="0.4762" stop-color="#15CF74"/>
<stop offset="0.8009" stop-color="#06E775"/>
<stop offset="1" stop-color="#00F076"/>
</linearGradient>
</defs>
</svg>
