<svg width="24" height="24" viewBox="0 0 24 24" fill="none" xmlns="http://www.w3.org/2000/svg">
<g clip-path="url(#clip0_4524_514)">
<rect width="24" height="24" rx="12" fill="white"/>
<rect x="4.00586" y="6.82999" width="13.4104" height="13.4104" transform="rotate(-12 4.00586 6.82999)" fill="#D91F0A"/>
<path d="M15.1498 13.1939L16.1442 14.8631L13.9305 16.189L12.7585 14.6264C12.5573 14.6264 12.5336 14.6264 10.7934 14.6145V15.7865H8.2245V7.57082H12.2968C14.4277 7.57082 15.8483 9.08611 15.8483 11.0631C15.8483 11.9154 15.6707 12.5665 15.1498 13.1939ZM10.7934 12.0456H12.2613C12.8887 12.0456 13.2676 11.5958 13.2676 11.0631C13.2676 10.5304 12.8887 10.0923 12.2613 10.0923H10.7934V12.0456Z" fill="white"/>
</g>
<defs>
<clipPath id="clip0_4524_514">
<rect width="24" height="24" fill="white"/>
</clipPath>
</defs>
</svg>
