<svg width="24" height="24" viewBox="0 0 24 24" fill="none" xmlns="http://www.w3.org/2000/svg">
<circle cx="12" cy="12" r="12" fill="#1D7AD9"/>
<path d="M11.998 4.06641C11.3945 4.06641 10.916 4.4043 10.916 4.81445L11.2832 8.96484C11.3223 9.21484 11.6289 9.4082 12 9.4082C12.3711 9.4082 12.6758 9.21289 12.7168 8.96484L13.0859 4.81445C13.0859 4.4043 12.6035 4.06836 12 4.06836L11.998 4.06641ZM6.02539 7.38672C5.83562 7.41173 5.65487 7.48284 5.49894 7.59383C5.343 7.70482 5.21662 7.85232 5.13086 8.02344C4.82812 8.54688 4.88086 9.13086 5.23437 9.33594L9.01172 11.0937C9.24804 11.1816 9.56836 11.0137 9.7539 10.7031C9.94922 10.3809 9.92578 10.0195 9.73047 9.85937L6.31836 7.46875C6.22918 7.41824 6.12782 7.39324 6.02539 7.39648V7.38672ZM17.9727 7.38672C17.8702 7.38347 17.7689 7.40848 17.6797 7.45898L14.2676 9.86133C14.0723 10.0215 14.0586 10.3828 14.2441 10.7051C14.4297 11.0254 14.75 11.1934 14.9863 11.0957L18.7637 9.33789C19.1211 9.13281 19.1719 8.55664 18.8711 8.02539C18.7836 7.85473 18.6556 7.70815 18.4983 7.5985C18.341 7.48885 18.1591 7.41948 17.9687 7.39648L17.9727 7.38672ZM9.15429 12.8555C9.10629 12.8532 9.05834 12.8612 9.01367 12.8789L5.23633 14.6484C4.88086 14.8555 4.82812 15.4297 5.13086 15.9629C5.43359 16.4961 5.96484 16.7324 6.31836 16.5273L9.73047 14.1406C9.92578 13.9785 9.9414 13.6172 9.75586 13.2969C9.69896 13.1816 9.6141 13.0824 9.50902 13.0084C9.40394 12.9344 9.28198 12.8878 9.15429 12.873V12.8555ZM14.8457 12.8555C14.718 12.8702 14.5961 12.9168 14.491 12.9908C14.3859 13.0649 14.301 13.164 14.2441 13.2793C14.0488 13.5996 14.0742 13.9609 14.2695 14.123L17.6816 16.5312C18.0352 16.7266 18.5664 16.4883 18.8711 15.9668C19.1758 15.4453 19.1211 14.8594 18.7637 14.6523L14.9863 12.8906C14.9416 12.8731 14.8937 12.8651 14.8457 12.8672V12.8555ZM11.998 14.5938C11.6289 14.5938 11.3223 14.7891 11.2832 15.0352L10.916 19.1855C10.916 19.5957 11.3965 19.9336 12 19.9336C12.6035 19.9336 13.0859 19.5957 13.0859 19.1855L12.7168 15.0391C12.6758 14.7891 12.3711 14.5977 12 14.5977L11.998 14.5938Z" fill="#FFC220"/>
</svg>
