<svg width="24" height="24" viewBox="0 0 24 24" fill="none" xmlns="http://www.w3.org/2000/svg">
<path d="M12 24C18.6274 24 24 18.6274 24 12C24 5.37258 18.6274 0 12 0C5.37258 0 0 5.37258 0 12C0 18.6274 5.37258 24 12 24Z" fill="#004098"/>
<path fill-rule="evenodd" clip-rule="evenodd" d="M12.5601 8.31997V18.16L10.0801 17.28V5.83997L13.2801 6.71997C15.2801 7.27997 16.5601 8.39997 16.5601 10.4C16.5601 12.72 15.4401 13.6 13.6801 12.72V8.47997C13.6001 7.83997 12.5601 7.43997 12.5601 8.31997ZM9.52008 12.8L9.12008 12.96L5.52008 14.24C4.72008 14.56 4.16008 14.8 4.08008 15.36C4.08008 16.08 5.20008 16.4 6.88008 16.72C7.76008 16.88 8.64008 16.8 9.44008 16.64V15.28C9.44008 15.28 8.00008 15.84 7.68008 15.92H6.96008C6.48008 15.92 6.24008 15.6 6.72008 15.44L9.44008 14.4L9.52008 12.8ZM16.0001 13.44C15.0401 13.44 13.7601 13.68 13.0401 14V15.52L14.8001 14.88L16.1601 14.48C17.6001 14.24 18.1601 14.72 16.8001 15.12L13.1201 16.48V18L18.4801 16.08C19.0401 15.84 19.9201 15.44 19.9201 14.96C19.7601 14.16 18.5601 13.68 16.7201 13.52C16.5601 13.52 16.4001 13.52 16.2401 13.52C16.0801 13.44 16.0001 13.44 16.0001 13.44Z" fill="white"/>
</svg>
