<svg width="25" height="22" viewBox="0 0 25 22" fill="none" xmlns="http://www.w3.org/2000/svg">
<g clip-path="url(#clip0_454_844)">
<mask id="mask0_454_844" style="mask-type:luminance" maskUnits="userSpaceOnUse" x="1" y="0" width="24" height="22">
<path d="M24.9667 0.330078H1.0907V21.1201H24.9667V0.330078Z" fill="white"/>
</mask>
<g mask="url(#mask0_454_844)">
<path d="M17.9471 2.01477L14.3393 1.71213L2.21814 1.52979V20.1808H15.1567L19.4683 19.0083L22.4031 16.4641L23.8387 12.4622V7.8388L21.6919 4.12403L17.9471 2.01477Z" fill="white"/>
<path d="M2.60112 1.84284V19.607H13.3938C19.9112 19.607 23.4564 16.5711 23.4564 10.7022C23.4564 4.67097 19.6134 1.84284 13.3938 1.84284H2.60112ZM13.3938 0.920898C22.9513 0.920898 24.3784 7.0497 24.3784 10.7022C24.3784 17.0394 20.4776 20.5294 13.3938 20.5294C13.3938 20.5294 1.91021 20.5294 1.67896 20.5294C1.67896 20.2972 1.67896 1.15249 1.67896 0.920898C1.91021 0.920898 13.3938 0.920898 13.3938 0.920898Z" fill="#0A0B09"/>
<path d="M9.25964 7.94791C9.25964 8.50334 9.25964 9.39714 9.25964 9.95232C9.56401 9.95232 9.87494 9.95232 9.87494 9.95232C10.3012 9.95232 10.6949 9.82916 10.6949 8.93444C10.6949 8.06001 10.2568 7.94791 9.87494 7.94791C9.87494 7.94791 9.56401 7.94791 9.25964 7.94791ZM19.523 6.95093H20.5182C20.5182 6.95093 20.5182 9.22001 20.5182 9.95232C20.7389 9.95232 21.345 9.95232 21.9929 9.95232C21.5885 4.50625 17.3041 3.32959 13.4112 3.32959H9.26056V6.95299H9.87494C10.995 6.95299 11.691 7.71255 11.691 8.93444C11.691 10.195 11.0117 10.9475 9.87494 10.9475H9.26056V18.1976H13.4112C19.7408 18.1976 21.9435 15.2583 22.0212 10.9475H19.523V6.95093ZM16.75 9.18093H17.4701L17.1409 8.05112H17.0811L16.75 9.18093ZM15.197 10.9487L16.4022 6.95079H17.8181L19.023 10.9487H17.987L17.7611 10.1754H16.4592L16.2327 10.9487H15.197ZM14.719 9.95232V10.9475H12.2569V6.95243H14.6395V7.94717C14.6395 7.94717 13.7916 7.94717 13.2522 7.94717C13.2522 8.08438 13.2522 8.24163 13.2522 8.41037H14.5643V9.40488H13.2522C13.2522 9.60454 13.2522 9.7929 13.2522 9.95232C13.8072 9.95232 14.719 9.95232 14.719 9.95232Z" fill="#D50172"/>
<path d="M7.95733 8.9484C7.95733 10.1344 6.99627 11.096 5.8102 11.096C4.6247 11.096 3.66272 10.1344 3.66272 8.9484C3.66272 7.76324 4.6247 6.80127 5.8102 6.80127C6.99627 6.80127 7.95733 7.76324 7.95733 8.9484ZM4.08781 18.1945H7.5428V12.044H4.08781V18.1945Z" fill="black"/>
</g>
</g>
<defs>
<clipPath id="clip0_454_844">
<rect width="24.1164" height="20.79" fill="white" transform="translate(0.883545 0.330078)"/>
</clipPath>
</defs>
</svg>
