<svg width="119" height="41" viewBox="0 0 119 41" fill="none" xmlns="http://www.w3.org/2000/svg">
<g clip-path="url(#clip0_732_1717)">
<path d="M50.6956 20.8031C50.6956 26.3553 46.3521 30.4466 41.0217 30.4466C35.6913 30.4466 31.3478 26.3553 31.3478 20.8031C31.3478 15.2118 35.6913 11.1596 41.0217 11.1596C46.3521 11.1596 50.6956 15.2118 50.6956 20.8031ZM46.4608 20.8031C46.4608 17.3335 43.9434 14.9596 41.0217 14.9596C38.1 14.9596 35.5826 17.3335 35.5826 20.8031C35.5826 24.2379 38.1 26.6466 41.0217 26.6466C43.9434 26.6466 46.4608 24.2335 46.4608 20.8031Z" fill="#EA4335"/>
<path d="M71.5652 20.8031C71.5652 26.3553 67.2217 30.4466 61.8913 30.4466C56.5609 30.4466 52.2174 26.3553 52.2174 20.8031C52.2174 15.2161 56.5609 11.1596 61.8913 11.1596C67.2217 11.1596 71.5652 15.2118 71.5652 20.8031ZM67.3304 20.8031C67.3304 17.3335 64.813 14.9596 61.8913 14.9596C58.9696 14.9596 56.4522 17.3335 56.4522 20.8031C56.4522 24.2379 58.9696 26.6466 61.8913 26.6466C64.813 26.6466 67.3304 24.2335 67.3304 20.8031Z" fill="#FBBC05"/>
<path d="M91.5651 11.7422V29.0553C91.5651 36.177 87.3651 39.0857 82.3999 39.0857C77.726 39.0857 74.9129 35.9596 73.852 33.4031L77.539 31.8683C78.1955 33.4379 79.8042 35.29 82.3955 35.29C85.5738 35.29 87.5433 33.3292 87.5433 29.6379V28.2509H87.3955C86.4477 29.4205 84.6216 30.4422 82.3173 30.4422C77.4955 30.4422 73.0781 26.2422 73.0781 20.8379C73.0781 15.3944 77.4955 11.1596 82.3173 11.1596C84.6173 11.1596 86.4433 12.1813 87.3955 13.3161H87.5433V11.7466H91.5651V11.7422ZM87.8433 20.8379C87.8433 17.4422 85.5781 14.9596 82.6955 14.9596C79.7738 14.9596 77.326 17.4422 77.326 20.8379C77.326 24.1987 79.7738 26.6466 82.6955 26.6466C85.5781 26.6466 87.8433 24.1987 87.8433 20.8379Z" fill="#4285F4"/>
<path d="M98.1957 1.59442V29.8553H94.0652V1.59442H98.1957Z" fill="#34A853"/>
<path d="M114.291 23.9771L117.578 26.1684C116.517 27.738 113.961 30.4424 109.543 30.4424C104.065 30.4424 99.9739 26.2076 99.9739 20.7989C99.9739 15.0641 104.1 11.1554 109.07 11.1554C114.074 11.1554 116.522 15.138 117.322 17.2902L117.761 18.3858L104.87 23.725C105.856 25.6597 107.391 26.6467 109.543 26.6467C111.7 26.6467 113.196 25.5858 114.291 23.9771ZM104.174 20.5076L112.791 16.9293C112.317 15.725 110.891 14.8858 109.213 14.8858C107.061 14.8858 104.065 16.7858 104.174 20.5076Z" fill="#EA4335"/>
<path d="M15.713 18.2944V14.2031H29.5C29.6348 14.9162 29.7044 15.7597 29.7044 16.6727C29.7044 19.7423 28.8652 23.5379 26.1609 26.2423C23.5304 28.9814 20.1696 30.4423 15.7174 30.4423C7.46522 30.4423 0.526093 23.7205 0.526093 15.4684C0.526093 7.21618 7.46522 0.494446 15.7174 0.494446C20.2826 0.494446 23.5348 2.28575 25.9783 4.62053L23.0913 7.50749C21.3391 5.86401 18.9652 4.58575 15.713 4.58575C9.68696 4.58575 4.97392 9.44227 4.97392 15.4684C4.97392 21.4944 9.68696 26.351 15.713 26.351C19.6217 26.351 21.8478 24.7814 23.2739 23.3553C24.4304 22.1988 25.1913 20.5466 25.4913 18.2901L15.713 18.2944Z" fill="#4285F4"/>
</g>
<defs>
<clipPath id="clip0_732_1717">
<rect width="118.261" height="40" fill="white" transform="translate(0.369568 0.290039)"/>
</clipPath>
</defs>
</svg>
