<svg width="99" height="22" viewBox="0 0 99 22" fill="none" xmlns="http://www.w3.org/2000/svg">
<g clip-path="url(#clip0_454_721)">
<mask id="mask0_454_721" style="mask-type:luminance" maskUnits="userSpaceOnUse" x="1" y="0" width="98" height="21">
<path d="M98.1061 0.862305H1.50952V20.5581H98.1061V0.862305Z" fill="white"/>
</mask>
<g mask="url(#mask0_454_721)">
<path d="M47.1913 14.4557V11.0498C47.1913 9.74746 46.3979 8.89401 45.0356 8.89401C44.3543 8.89401 43.6131 9.11844 43.1042 9.85967C42.7075 9.23856 42.1386 8.89401 41.2851 8.89401C40.7162 8.89401 40.1472 9.06628 39.6984 9.68741V9.00622H38.5082V14.4541H39.6984V11.4448C39.6984 10.4792 40.2073 10.0225 41.0007 10.0225C41.794 10.0225 42.1907 10.5314 42.1907 11.4448V14.4541H43.3808V11.4448C43.3808 10.4792 43.9498 10.0225 44.6831 10.0225C45.4765 10.0225 45.8732 10.5314 45.8732 11.4448V14.4541H47.1898L47.1913 14.4557ZM64.8467 9.00781H62.9154V7.36096H61.7252V9.00781H60.6474V10.0857H61.7252V12.5845C61.7252 13.8346 62.2342 14.5679 63.5966 14.5679C64.1055 14.5679 64.6745 14.3956 65.0711 14.1712L64.7266 13.1471C64.3821 13.3715 63.9853 13.4315 63.7025 13.4315C63.1335 13.4315 62.9091 13.087 62.9091 12.5259V10.0857H64.8404V9.00781H64.8467ZM74.9506 8.88927C74.2695 8.88927 73.8127 9.23382 73.5283 9.68266V9.00148H72.3381V14.4493H73.5283V11.3817C73.5283 10.4761 73.9249 9.95925 74.6661 9.95925C74.8906 9.95925 75.1751 10.0193 75.4074 10.0715L75.7519 8.93352C75.5133 8.88769 75.1767 8.88769 74.9523 8.88769L74.9506 8.88927ZM59.6818 9.45824C59.1128 9.06155 58.3194 8.88927 57.4659 8.88927C56.1035 8.88927 55.198 9.57045 55.198 10.6483C55.198 11.5539 55.8791 12.0707 57.0693 12.2351L57.6383 12.2951C58.2593 12.4074 58.6039 12.5796 58.6039 12.8641C58.6039 13.2609 58.1471 13.5453 57.3538 13.5453C56.5604 13.5453 55.9313 13.2609 55.5346 12.9764L54.9657 13.882C55.5867 14.3387 56.4402 14.5631 57.2937 14.5631C58.8804 14.5631 59.7924 13.8219 59.7924 12.8041C59.7924 11.8384 59.0511 11.3295 57.9211 11.1572L57.3521 11.0972C56.8432 11.0371 56.4466 10.9249 56.4466 10.5883C56.4466 10.1916 56.8432 9.96715 57.4706 9.96715C58.1519 9.96715 58.833 10.2516 59.176 10.4239L59.6786 9.45824H59.6818ZM91.348 8.88927C90.6668 8.88927 90.2101 9.23382 89.9256 9.68266V9.00148H88.7355V14.4493H89.9256V11.3817C89.9256 10.4761 90.3223 9.95925 91.0635 9.95925C91.288 9.95925 91.5725 10.0193 91.8048 10.0715L92.1493 8.94775C91.9186 8.88769 91.5803 8.88769 91.3496 8.88769L91.348 8.88927ZM76.1392 11.7325C76.1392 13.3794 77.2772 14.5695 79.0362 14.5695C79.8295 14.5695 80.3985 14.3972 80.9675 13.9484L80.3985 12.9826C79.9418 13.3272 79.4929 13.4916 78.9761 13.4916C78.0105 13.4916 77.3292 12.8104 77.3292 11.7325C77.3292 10.6547 78.0105 10.0272 78.9761 9.97347C79.4851 9.97347 79.9418 10.1457 80.3985 10.4824L80.9675 9.51672C80.3985 9.05996 79.8295 8.8956 79.0362 8.8956C77.2772 8.88927 76.1392 10.0857 76.1392 11.7325ZM87.1487 11.7325V9.00781H85.9586V9.68899C85.562 9.18008 84.993 8.8956 84.2533 8.8956C82.7187 8.8956 81.5286 10.0857 81.5286 11.7325C81.5286 13.3794 82.7187 14.5695 84.2533 14.5695C85.0467 14.5695 85.6157 14.285 85.9586 13.7761V14.4573H87.1487V11.7325ZM82.7771 11.7325C82.7771 10.7669 83.3983 9.97347 84.424 9.97347C85.3896 9.97347 86.0708 10.7147 86.0708 11.7325C86.0708 12.6983 85.3896 13.4916 84.424 13.4916C83.4062 13.4315 82.7771 12.6919 82.7771 11.7325ZM68.534 8.88927C66.9471 8.88927 65.8093 10.0272 65.8093 11.7262C65.8093 13.4252 66.9471 14.5631 68.5924 14.5631C69.3858 14.5631 70.1792 14.3387 70.8083 13.8219L70.2393 12.9684C69.7826 13.313 69.2151 13.5374 68.6525 13.5374C67.9113 13.5374 67.1779 13.1928 67.0057 12.2351H71.0327V11.7784C71.0848 10.0256 70.0607 8.88927 68.534 8.88927ZM68.534 9.91341C69.2752 9.91341 69.7841 10.3702 69.8963 11.2157H67.0594C67.1716 10.4824 67.6805 9.91341 68.534 9.91341ZM98.1045 11.7325V6.85205H96.9144V9.68899C96.5177 9.18008 95.9488 8.8956 95.2091 8.8956C93.6744 8.8956 92.4844 10.0857 92.4844 11.7325C92.4844 13.3794 93.6744 14.5695 95.2091 14.5695C96.0025 14.5695 96.5715 14.285 96.9144 13.7761V14.4573H98.1045V11.7325ZM93.733 11.7325C93.733 10.7669 94.3541 9.97347 95.3798 9.97347C96.3454 9.97347 97.0267 10.7147 97.0267 11.7325C97.0267 12.6983 96.3454 13.4916 95.3798 13.4916C94.3556 13.4315 93.733 12.6919 93.733 11.7325ZM53.8862 11.7325V9.00781H52.696V9.68899C52.2994 9.18008 51.7304 8.8956 50.9907 8.8956C49.4561 8.8956 48.266 10.0857 48.266 11.7325C48.266 13.3794 49.4561 14.5695 50.9907 14.5695C51.7841 14.5695 52.3531 14.285 52.696 13.7761V14.4573H53.8862V11.7325ZM49.4624 11.7325C49.4624 10.7669 50.0836 9.97347 51.1093 9.97347C52.075 9.97347 52.7561 10.7147 52.7561 11.7325C52.7561 12.6983 52.075 13.4916 51.1093 13.4916C50.0851 13.4315 49.4624 12.6919 49.4624 11.7325Z" fill="#E5E5E5"/>
<path d="M21.7268 2.96875H13.1101V18.451H21.7268V2.96875Z" fill="#EB5D1C"/>
<path d="M13.6839 10.7102C13.6839 7.56507 15.1632 4.77238 17.4312 2.96907C15.7622 1.6557 13.6554 0.862305 11.3574 0.862305C5.91428 0.862305 1.50952 5.26707 1.50952 10.7102C1.50952 16.1533 5.91428 20.5581 11.3574 20.5581C13.6554 20.5581 15.7622 19.7647 17.4312 18.4514C15.1584 16.6733 13.6839 13.8554 13.6839 10.7102Z" fill="#E41522"/>
<path d="M33.3528 10.7102C33.3528 16.1533 28.9479 20.5581 23.5049 20.5581C21.2068 20.5581 19.1 19.7647 17.4312 18.4514C19.7291 16.6448 21.1784 13.8554 21.1784 10.7102C21.1784 7.56507 19.6991 4.77238 17.4312 2.96907C19.0985 1.6557 21.2053 0.862305 23.5017 0.862305C28.9479 0.862305 33.3528 5.29552 33.3528 10.7102Z" fill="#F59E1F"/>
</g>
</g>
<defs>
<clipPath id="clip0_454_721">
<rect width="97.3847" height="20.79" fill="white" transform="translate(0.795166 0.330078)"/>
</clipPath>
</defs>
</svg>
