<svg width="88" height="25" viewBox="0 0 88 25" fill="none" xmlns="http://www.w3.org/2000/svg">
<g clip-path="url(#clip0_452_743)">
<mask id="mask0_452_743" style="mask-type:luminance" maskUnits="userSpaceOnUse" x="0" y="1" width="87" height="24">
<path d="M86.3007 1.33936H0.865234V24.0762H86.3007V1.33936Z" fill="white"/>
</mask>
<g mask="url(#mask0_452_743)">
<path d="M32.7043 5.98926H27.9924C27.6699 5.98926 27.3956 6.22352 27.3454 6.54183L25.4396 18.6248C25.4017 18.8631 25.5863 19.0781 25.8282 19.0781H28.0777C28.4002 19.0781 28.6745 18.8438 28.7247 18.5249L29.2387 15.2659C29.2884 14.9468 29.5632 14.7127 29.8849 14.7127H31.3766C34.4806 14.7127 36.272 13.2106 36.7399 10.2342C36.9507 8.93196 36.7487 7.9088 36.139 7.19224C35.4692 6.40541 34.2815 5.98926 32.7043 5.98926ZM33.248 10.4023C32.9903 12.0931 31.6985 12.0931 30.4493 12.0931H29.7382L30.2371 8.9354C30.2667 8.74455 30.432 8.604 30.6249 8.604H30.9508C31.8018 8.604 32.6044 8.60399 33.0192 9.08905C33.2665 9.37842 33.3423 9.80835 33.248 10.4023Z" fill="#253B80"/>
<path d="M46.7895 10.348H44.533C44.3408 10.348 44.1748 10.4885 44.1451 10.6794L44.0452 11.3105L43.8874 11.0817C43.399 10.3727 42.3096 10.1357 41.2224 10.1357C38.7289 10.1357 36.5993 12.0243 36.1844 14.6735C35.9688 15.9949 36.2754 17.2586 37.0251 18.1397C37.7126 18.9501 38.6966 19.2877 39.8672 19.2877C41.8762 19.2877 42.9903 17.9957 42.9903 17.9957L42.8898 18.6228C42.8519 18.8625 43.0366 19.0775 43.2769 19.0775H45.3095C45.6326 19.0775 45.9054 18.8432 45.9565 18.5242L47.1761 10.8013C47.2146 10.5636 47.0307 10.348 46.7895 10.348ZM43.6443 14.7396C43.4265 16.0288 42.4033 16.8941 41.0984 16.8941C40.4432 16.8941 39.9195 16.684 39.5833 16.2857C39.2499 15.8902 39.123 15.3273 39.2291 14.7003C39.4324 13.4222 40.4727 12.5286 41.7577 12.5286C42.3985 12.5286 42.9193 12.7415 43.2625 13.1432C43.6064 13.549 43.7428 14.1153 43.6443 14.7396Z" fill="#253B80"/>
<path d="M58.807 10.3481H56.5395C56.3231 10.3481 56.1199 10.4556 55.9972 10.6355L52.8699 15.242L51.5442 10.8153C51.4608 10.5383 51.2053 10.3481 50.9159 10.3481H48.6877C48.4169 10.3481 48.2288 10.6127 48.3149 10.8677L50.8126 18.1972L48.4645 21.512C48.2798 21.7731 48.4658 22.1321 48.7848 22.1321H51.0495C51.2645 22.1321 51.4658 22.0274 51.5876 21.8509L59.1293 10.9648C59.31 10.7044 59.1245 10.3481 58.807 10.3481Z" fill="#253B80"/>
<path d="M66.3142 5.98926H61.6015C61.2797 5.98926 61.0055 6.22352 60.9552 6.54183L59.0495 18.6248C59.0116 18.8631 59.1963 19.0781 59.4367 19.0781H61.8551C62.0797 19.0781 62.2719 18.9142 62.3071 18.6908L62.8479 15.2659C62.8975 14.9468 63.1724 14.7127 63.4942 14.7127H64.9852C68.0898 14.7127 69.8805 13.2106 70.349 10.2342C70.5605 8.93196 70.3573 7.9088 69.7476 7.19224C69.0785 6.40541 67.8914 5.98926 66.3142 5.98926ZM66.8578 10.4023C66.6009 12.0931 65.309 12.0931 64.0592 12.0931H63.3488L63.8484 8.9354C63.8779 8.74455 64.0419 8.604 64.2355 8.604H64.5614C65.4117 8.604 66.215 8.60399 66.6298 9.08905C66.8772 9.37842 66.9522 9.80835 66.8578 10.4023Z" fill="#179BD7"/>
<path d="M80.3986 10.348H78.1437C77.95 10.348 77.7853 10.4885 77.7564 10.6794L77.6565 11.3105L77.4981 11.0817C77.0095 10.3727 75.9209 10.1357 74.8337 10.1357C72.3402 10.1357 70.2111 12.0243 69.7965 14.6735C69.5815 15.9949 69.8866 17.2586 70.6363 18.1397C71.3253 18.9501 72.3079 19.2877 73.4784 19.2877C75.4875 19.2877 76.6016 17.9957 76.6016 17.9957L76.501 18.6228C76.4631 18.8625 76.6478 19.0775 76.8896 19.0775H78.9215C79.2432 19.0775 79.5175 18.8432 79.5677 18.5242L80.7879 10.8013C80.8252 10.5636 80.6405 10.348 80.3986 10.348ZM77.2534 14.7396C77.0371 16.0288 76.0126 16.8941 74.7076 16.8941C74.0537 16.8941 73.5287 16.684 73.1925 16.2857C72.859 15.8902 72.7337 15.3273 72.8384 14.7003C73.043 13.4222 74.082 12.5286 75.367 12.5286C76.0078 12.5286 76.5286 12.7415 76.8718 13.1432C77.2169 13.549 77.3533 14.1153 77.2534 14.7396Z" fill="#179BD7"/>
<path d="M83.0588 6.32087L81.1248 18.6249C81.0869 18.8634 81.2716 19.0783 81.5121 19.0783H83.4565C83.7796 19.0783 84.0538 18.8441 84.1033 18.525L86.0106 6.44282C86.0485 6.20443 85.8638 5.98877 85.6233 5.98877H83.4461C83.2539 5.98946 83.0885 6.13002 83.0588 6.32087Z" fill="#179BD7"/>
<path d="M5.87153 21.4264L6.23187 19.1376L5.4292 19.1189H1.59631L4.25997 2.22957C4.26824 2.17859 4.29511 2.13104 4.33438 2.09729C4.37365 2.06353 4.42395 2.04492 4.47631 2.04492H10.9391C13.0847 2.04492 14.5652 2.4914 15.3383 3.37261C15.7008 3.78602 15.9316 4.21802 16.0431 4.69342C16.1603 5.19226 16.1624 5.78824 16.048 6.51512L16.0397 6.56818V7.03394L16.4021 7.23925C16.7074 7.40118 16.9499 7.58651 17.1359 7.79872C17.446 8.15218 17.6464 8.60141 17.7312 9.13399C17.8187 9.68175 17.7898 10.3335 17.6464 11.0714C17.4811 11.9203 17.2138 12.6596 16.8528 13.2645C16.5206 13.8219 16.0976 14.2843 15.5953 14.6425C15.1158 14.9829 14.546 15.2412 13.9018 15.4066C13.2776 15.5693 12.5658 15.6513 11.7852 15.6513H11.2822C10.9226 15.6513 10.5732 15.7807 10.299 16.0129C10.0241 16.25 9.8422 16.5737 9.7864 16.9279L9.7485 17.134L9.11187 21.168L9.08293 21.3161C9.07535 21.363 9.06227 21.3864 9.04298 21.4023C9.02575 21.4167 9.00094 21.4264 8.97683 21.4264H5.87153Z" fill="#253B80"/>
<path d="M16.7453 6.62207C16.726 6.74539 16.7039 6.87148 16.6791 7.00102C15.8268 11.3768 12.911 12.8885 9.18698 12.8885H7.29087C6.83544 12.8885 6.45167 13.2192 6.3807 13.6684L5.40991 19.8253L5.135 21.5705C5.08883 21.8654 5.3162 22.1313 5.61385 22.1313H8.97683C9.37508 22.1313 9.71337 21.8419 9.77607 21.4492L9.80914 21.2784L10.4423 17.2602L10.483 17.0396C10.545 16.6455 10.884 16.3561 11.2822 16.3561H11.7852C15.0434 16.3561 17.5941 15.0334 18.3396 11.2053C18.651 9.6061 18.4898 8.27083 17.6658 7.33174C17.4163 7.04855 17.1069 6.8136 16.7453 6.62207Z" fill="#179BD7"/>
<path d="M15.8537 6.26636C15.7234 6.22847 15.589 6.19402 15.4512 6.16301C15.3128 6.13269 15.1708 6.10583 15.0248 6.08241C14.5135 5.99972 13.9534 5.96045 13.3532 5.96045H8.28776C8.16304 5.96045 8.04453 5.98871 7.93843 6.03969C7.70486 6.15199 7.53124 6.37316 7.4892 6.64393L6.41161 13.4691L6.38062 13.6682C6.45158 13.219 6.83535 12.8883 7.29077 12.8883H9.18688C12.9109 12.8883 15.8268 11.3759 16.679 7.00084C16.7045 6.8713 16.7259 6.74521 16.7452 6.62189C16.5295 6.50751 16.2959 6.40968 16.0444 6.32631C15.9825 6.30563 15.9183 6.28566 15.8537 6.26636Z" fill="#222D65"/>
<path d="M7.48922 6.64393C7.53126 6.37316 7.70488 6.15199 7.93845 6.04036C8.04524 5.98938 8.16307 5.96114 8.28777 5.96114H13.3533C13.9534 5.96114 14.5136 6.00041 15.0248 6.08308C15.1708 6.10652 15.3128 6.13338 15.4512 6.1637C15.589 6.19471 15.7234 6.22916 15.8537 6.26705C15.9184 6.28634 15.9825 6.30632 16.0452 6.3263C16.2967 6.40967 16.5302 6.5082 16.7458 6.62188C16.9995 5.00481 16.7438 3.9038 15.8695 2.90682C14.9056 1.80925 13.1658 1.33936 10.9397 1.33936H4.47694C4.02221 1.33936 3.6343 1.67007 3.56402 2.11999L0.872117 19.1829C0.819064 19.5206 1.0795 19.8251 1.41987 19.8251H5.40984L6.41163 13.4692L7.48922 6.64393Z" fill="#253B80"/>
</g>
</g>
<defs>
<clipPath id="clip0_452_743">
<rect width="87.1579" height="24" fill="white" transform="translate(0.36145 0.725098)"/>
</clipPath>
</defs>
</svg>
