<svg width="124" height="22" viewBox="0 0 124 22" fill="none" xmlns="http://www.w3.org/2000/svg">
<g clip-path="url(#clip0_454_754)">
<path d="M1.86193 5.70242C2.06643 5.61673 2.27956 5.55244 2.49781 5.51058C2.68564 4.61653 3.18238 3.81334 3.90418 3.23663C4.62598 2.65991 5.52866 2.34498 6.45981 2.34498C7.391 2.34498 8.29365 2.65991 9.01547 3.23663C9.73725 3.81334 10.234 4.61653 10.4219 5.51058C10.9768 5.5906 11.491 5.84265 11.8893 6.22987C11.8974 5.89348 11.881 5.55697 11.8403 5.2229C11.7321 3.8704 11.0996 2.60989 10.0729 1.70021C9.04625 0.79054 7.70325 0.300752 6.3197 0.331438C4.93619 0.362123 3.61713 0.910951 2.63347 1.86522C1.6498 2.81948 1.07618 4.10674 1.0304 5.46264V6.22987C1.28847 6.02666 1.56711 5.84995 1.86193 5.70242Z" fill="#E5E5E5"/>
<path d="M9.63845 6.0863H3.13292C2.7909 6.0797 2.45325 6.16245 2.15465 6.32608C1.85169 6.43268 1.58206 6.61441 1.37203 6.85354C0.916448 7.44471 0.690972 8.17582 0.736148 8.91542V13.9023C0.700309 14.6557 0.924306 15.3989 1.37203 16.0121C1.60426 16.2257 1.86812 16.4035 2.15465 16.5396C2.45981 16.6864 2.79322 16.7681 3.13292 16.7794H9.63845C11.3015 16.7794 12.182 15.8683 12.182 14.0462V8.81954C12.182 6.99739 11.3504 6.13428 9.63845 6.0863Z" fill="#E5E5E5"/>
<path d="M88.1455 8.48485V14.3349C88.1365 14.65 88.1977 14.9633 88.3244 15.2531C88.4508 15.5429 88.6404 15.8022 88.8793 16.0132C89.143 16.2475 89.4524 16.4276 89.7883 16.5429C90.1242 16.6582 90.4805 16.7063 90.836 16.6845H94.7V15.6296H90.8849C90.6725 15.6373 90.4613 15.5982 90.2665 15.5152C90.072 15.4322 89.8988 15.3074 89.7598 15.15C89.4732 14.8329 89.3162 14.4229 89.3195 13.9992V8.72463C89.3093 8.52786 89.3432 8.33125 89.4194 8.14891C89.4952 7.96653 89.6118 7.8029 89.7598 7.66968C89.8988 7.52831 90.0659 7.41686 90.2514 7.34254C90.4365 7.26823 90.6358 7.23268 90.836 7.23814H94.6511V6.13525H90.836C90.1939 6.14133 89.567 6.32412 89.026 6.66271C88.7235 6.85875 88.4818 7.13216 88.3265 7.45334C88.1712 7.77457 88.1088 8.1313 88.1455 8.48485Z" fill="#E5E5E5"/>
<path d="M105.95 8.24431C105.941 7.61193 105.677 7.00869 105.217 6.56603C105.047 6.34765 104.805 6.19483 104.532 6.13449C104.226 6.07551 103.913 6.05936 103.602 6.08651H97.4884V7.1894H103.358C104.581 7.1894 104.776 7.86072 104.776 8.29229V9.63492H99.9339C98.2707 9.63492 97.4884 10.5939 97.4884 12.6558V14.1903C97.4876 14.8528 97.7509 15.4894 98.2218 15.9644C98.4337 16.2061 98.6963 16.3999 98.9918 16.5324C99.2874 16.6649 99.609 16.7328 99.9339 16.7316H103.602C103.907 16.7254 104.208 16.6585 104.485 16.5348C104.762 16.4112 105.012 16.2334 105.217 16.0124C105.448 15.7956 105.632 15.5352 105.758 15.2468C105.885 14.9583 105.95 14.6479 105.95 14.3341V8.24431ZM104.776 14.2382C104.767 14.459 104.699 14.6736 104.581 14.8616C104.513 15.0175 104.413 15.1578 104.286 15.2734C104.16 15.389 104.01 15.4774 103.847 15.5329C103.564 15.6243 103.264 15.657 102.967 15.6288H100.521C100.083 15.6598 99.644 15.5771 99.249 15.389C99.0631 15.2486 98.9123 15.0681 98.8088 14.8616C98.7252 14.68 98.6755 14.485 98.662 14.2861V12.2722C98.662 11.6968 98.9066 10.7857 100.472 10.7857H104.825L104.776 14.2382Z" fill="#E5E5E5"/>
<path d="M111.819 7.23686H112.357V6.08603H111.673C111.335 6.05831 110.996 6.0994 110.677 6.2067C110.357 6.31399 110.063 6.48516 109.814 6.70941C109.471 7.04506 109.324 7.6684 109.324 8.57949V16.6832H110.45V8.62743C110.428 8.44382 110.448 8.25785 110.509 8.08281C110.569 7.90781 110.668 7.74805 110.799 7.61512C110.931 7.48218 111.09 7.37929 111.266 7.31391C111.443 7.24848 111.631 7.22219 111.819 7.23686Z" fill="#E5E5E5"/>
<path d="M123.021 2.1543H121.896V6.08625H117.347C115.586 6.08625 114.755 6.85349 114.755 8.48383V14.2379C114.73 14.5495 114.769 14.8627 114.871 15.1591C114.971 15.4556 115.131 15.7293 115.342 15.9642C115.567 16.2023 115.839 16.393 116.142 16.525C116.444 16.6568 116.771 16.7271 117.102 16.7314H120.673C120.992 16.737 121.308 16.6708 121.596 16.5377C121.884 16.4047 122.138 16.2085 122.336 15.9642C122.812 15.4374 123.058 14.7487 123.021 14.0461V2.1543ZM121.896 13.9982C121.906 14.2093 121.873 14.4202 121.797 14.6181C121.721 14.8159 121.605 14.9966 121.456 15.149C121.313 15.3018 121.139 15.4234 120.945 15.5061C120.752 15.5887 120.542 15.6304 120.331 15.6285H117.151C116.973 15.6334 116.795 15.5968 116.634 15.5219C116.473 15.4468 116.332 15.3355 116.222 15.1969C115.987 14.9132 115.865 14.5552 115.879 14.1899V8.77151C115.879 7.76454 116.418 7.23708 117.396 7.23708H121.896V13.9982Z" fill="#E5E5E5"/>
<path d="M22.8453 9.44259C22.8453 9.01102 22.6496 8.81922 22.2583 8.81922H20.2039C20.1008 8.81791 19.9984 8.83691 19.9029 8.87498C19.8074 8.9131 19.7205 8.96956 19.6476 9.04106C19.5747 9.11256 19.5171 9.19764 19.4782 9.29131C19.4393 9.38499 19.42 9.48531 19.4213 9.58645V13.2307C19.4213 13.7581 19.7148 13.9979 20.2528 13.9979H22.1605C22.2545 13.9933 22.3465 13.9696 22.4307 13.9284C22.5149 13.8871 22.5895 13.8292 22.6496 13.7581C22.7174 13.7089 22.7711 13.6433 22.8054 13.5676C22.8397 13.492 22.8534 13.409 22.8453 13.3266V9.44259ZM16.6332 8.91514C16.6255 8.15043 16.8843 7.40611 17.3669 6.80528C17.5992 6.59175 17.8631 6.41394 18.1495 6.27782C18.4547 6.13107 18.7881 6.04938 19.1278 6.03809H22.9431C24.6062 6.03809 25.4866 6.94914 25.4866 8.77128V14.2856C25.4924 14.598 25.4248 14.9075 25.2891 15.1902C25.1534 15.4729 24.9532 15.7212 24.704 15.9159C24.2354 16.3784 23.6072 16.6521 22.9431 16.6832H19.3235V20.6631H16.6332V8.91514Z" fill="#E5E5E5"/>
<path d="M30.3291 13.5197C30.3252 13.5947 30.3412 13.6695 30.3755 13.7367C30.4098 13.8039 30.4611 13.8613 30.5247 13.9033C30.6682 14.0007 30.8394 14.051 31.0138 14.0472H33.0682C33.5084 14.0472 33.753 13.8554 33.8019 13.5197V12.7525C33.8019 12.3209 33.5573 12.1291 33.0682 12.1291H31.0138C30.8226 12.1111 30.6313 12.1623 30.4758 12.273C30.3566 12.4407 30.3044 12.6455 30.3291 12.8484V13.5197ZM33.8019 9.39594C33.8019 9.0123 33.5573 8.82051 33.0682 8.82051H27.6877V6.13525H33.753C35.5139 6.18323 36.3944 6.99836 36.4433 8.62871V14.239C36.4567 14.8948 36.2113 15.5303 35.7585 16.0132C35.5364 16.2519 35.2637 16.44 34.9594 16.5643C34.6552 16.6886 34.3269 16.746 33.9976 16.7324H30.3291C28.5681 16.7324 27.6388 15.9172 27.6388 14.3349V12.1771C27.6388 10.4988 28.5192 9.68362 30.2312 9.63568H33.8019V9.39594Z" fill="#E5E5E5"/>
<path d="M43.9268 18.0262C44.131 18.0178 44.3242 17.9318 44.4649 17.7864C44.5264 17.7318 44.5753 17.6652 44.6092 17.5909C44.643 17.5166 44.6605 17.4362 44.6605 17.3549V16.7315H41.2366C40.8723 16.7411 40.5089 16.6925 40.1605 16.5877C39.8409 16.463 39.5559 16.2658 39.329 16.0123C39.0884 15.7387 38.8906 15.4317 38.742 15.1012C38.6165 14.7629 38.5504 14.4062 38.5464 14.0463V6.08643H41.2366V13.1832C41.2366 13.7585 41.4812 14.0463 41.9705 14.0463H43.8778C43.9871 14.0471 44.0955 14.0262 44.1962 13.9851C44.2973 13.9439 44.3886 13.8831 44.4649 13.8065C44.6002 13.699 44.6878 13.5444 44.7094 13.375V6.08643H47.351V17.7864C47.3799 18.5464 47.1378 19.2924 46.6661 19.8963C46.4505 20.1615 46.1745 20.3734 45.8602 20.515C45.5459 20.6565 45.2019 20.7238 44.8562 20.7115H38.5953V18.0262H43.9268Z" fill="#E5E5E5"/>
<path d="M49.406 14.0463H54.1506C54.5905 14.0463 54.835 13.8545 54.835 13.5188V13.2791C54.8383 13.1965 54.8216 13.1143 54.7861 13.0393C54.7552 12.9601 54.7022 12.8911 54.6329 12.8402C54.5636 12.7893 54.4812 12.7586 54.3952 12.7516H52.0472C51.7117 12.7561 51.379 12.6948 51.068 12.5713C50.7574 12.4478 50.4749 12.2645 50.2372 12.0323C50.0032 11.8458 49.812 11.6124 49.6771 11.3478C49.5422 11.0833 49.4663 10.7935 49.4549 10.4979V8.48396C49.5034 6.9016 50.335 6.13437 52.0472 6.08643H57.5744V8.77168H52.8788C52.3407 8.77168 52.0472 8.91554 52.0472 9.25119V9.49093C52.0472 9.82659 52.3407 10.0184 52.8788 10.0184H55.2264C55.5329 10.0149 55.8362 10.0775 56.1155 10.2018C56.3943 10.3261 56.6417 10.509 56.8407 10.7377C57.2744 11.1745 57.5198 11.7584 57.5255 12.368V14.334C57.4746 14.9524 57.1966 15.5318 56.7428 15.9643C56.5362 16.1986 56.2875 16.3936 56.0091 16.5397C55.6626 16.652 55.2977 16.7008 54.9329 16.6836H49.406V14.0463Z" fill="#E5E5E5"/>
<path d="M62.1723 13.5197C62.1682 13.5947 62.1845 13.6695 62.2188 13.7367C62.253 13.8039 62.3044 13.8613 62.368 13.9033C62.5114 14.0007 62.6827 14.051 62.8571 14.0472H64.9113C65.3515 14.0472 65.5961 13.8554 65.645 13.5197V12.7525C65.645 12.3209 65.4004 12.1291 64.9113 12.1291H62.8571C62.6655 12.1111 62.4743 12.1623 62.319 12.273C62.1996 12.4407 62.1474 12.6455 62.1723 12.8484V13.5197ZM65.645 9.39594C65.645 9.0123 65.4004 8.82051 64.9113 8.82051H59.5307V6.13525H65.5961C67.3571 6.18323 68.2377 6.99836 68.2866 8.62871V14.239C68.2996 14.8948 68.0546 15.5303 67.6017 16.0132C67.3796 16.2519 67.1068 16.44 66.8027 16.5643C66.4982 16.6886 66.1701 16.746 65.8407 16.7324H62.1723C60.4112 16.7324 59.4818 15.9172 59.4818 14.3349V12.1771C59.4818 10.4988 60.3623 9.68362 62.0744 9.63568H65.645V9.39594Z" fill="#E5E5E5"/>
<path d="M70.4382 4.60003C70.4313 4.26881 70.5026 3.94048 70.6469 3.64091C70.7912 3.34134 71.0044 3.07873 71.2698 2.8738C71.8523 2.41906 72.58 2.18122 73.3243 2.20248H75.0365V4.79183H74.0092C73.8983 4.7765 73.785 4.78502 73.6778 4.81678C73.5706 4.84854 73.4715 4.90279 73.3879 4.9758C73.304 5.04877 73.2375 5.13874 73.1927 5.23947C73.1478 5.34016 73.1262 5.4492 73.1287 5.55906V6.13446H75.0365V8.81971H73.1287V16.7795H70.4382V4.60003Z" fill="#E5E5E5"/>
<path d="M82.5693 9.34707V9.29913C82.5726 9.23073 82.5563 9.16282 82.5216 9.10334C82.487 9.04386 82.4356 8.99535 82.3737 8.96348C82.2449 8.87326 82.0916 8.82312 81.9334 8.81962H80.075C79.969 8.81053 79.8622 8.82284 79.7611 8.85586C79.66 8.88884 79.567 8.94179 79.4879 9.01142C79.4019 9.06099 79.3302 9.13082 79.2788 9.21459C79.2275 9.29832 79.1985 9.39334 79.1944 9.49093V10.5938L82.5693 9.34707ZM79.2923 13.1352V13.2791C79.2829 13.3757 79.2959 13.4731 79.3298 13.5643C79.3636 13.6555 79.4174 13.7382 79.4879 13.8065C79.5858 13.9504 79.6836 14.0463 79.8304 14.0463H85.3087V16.7315H79.4879C79.075 16.7466 78.6625 16.698 78.265 16.5877C77.9356 16.477 77.6352 16.297 77.3845 16.0602C77.1232 15.8209 76.9226 15.5255 76.7975 15.1971C76.6854 14.791 76.636 14.3708 76.6507 13.9504V8.57988C76.6996 6.94954 77.5312 6.13437 79.2434 6.08643H82.8629C84.5261 6.13437 85.3576 6.94954 85.4066 8.67576V10.7856L79.2923 13.1352Z" fill="#E5E5E5"/>
</g>
<defs>
<clipPath id="clip0_454_754">
<rect width="122.294" height="20.79" fill="white" transform="translate(0.730469 0.330078)"/>
</clipPath>
</defs>
</svg>
