<svg width="58" height="22" viewBox="0 0 58 22" fill="none" xmlns="http://www.w3.org/2000/svg">
<g clip-path="url(#clip0_454_812)">
<mask id="mask0_454_812" style="mask-type:luminance" maskUnits="userSpaceOnUse" x="1" y="0" width="57" height="21">
<path d="M57.4472 0.862305H1.17346V20.5581H57.4472V0.862305Z" fill="white"/>
</mask>
<g mask="url(#mask0_454_812)">
<path fill-rule="evenodd" clip-rule="evenodd" d="M13.1786 12.1441L17.7626 12.1382L17.5955 13.1816L13.7619 16.8423L16.98 16.8365L16.7925 17.9619L12.0532 17.9649L12.2525 16.8013L15.9278 13.2813H12.994L13.1786 12.1441Z" fill="#D13239"/>
<path fill-rule="evenodd" clip-rule="evenodd" d="M8.1638 10.3591C8.06415 10.2536 7.92053 10.1715 7.76226 10.107C7.5952 10.0425 7.41055 9.99565 7.22884 9.9634C7.00022 9.92237 6.77747 9.90479 6.61921 9.89892C6.47266 9.89307 6.37886 9.89307 6.37886 9.89307H4.37412H2.88228L1.54578 17.9648H2.79435L3.28675 14.9753L5.70769 14.987C5.70769 14.987 6.65144 15.0251 7.31969 14.6704C7.98795 14.3158 8.16673 13.5098 8.16673 13.5098C8.16673 13.5098 8.24001 13.2109 8.30156 12.8475C8.36896 12.4459 8.43637 11.9652 8.47154 11.7103C8.4862 11.5989 8.49499 11.5285 8.49499 11.5285C8.49499 11.5285 8.51258 11.4465 8.51258 11.3174C8.51551 11.1387 8.48913 10.8691 8.34844 10.6111C8.29862 10.5203 8.24001 10.4382 8.1638 10.3591ZM7.20246 11.7835C7.20246 11.7981 7.09109 12.4459 6.94454 13.2138C6.88884 13.5069 6.66316 13.6652 6.40525 13.7209C5.97733 13.8117 5.51717 13.7941 5.51717 13.7941L3.49484 13.7883L3.94034 11.1065L5.77217 11.1123C5.77217 11.1123 5.89527 11.1094 6.06819 11.1123C6.26456 11.1153 6.52541 11.1241 6.73937 11.1534C6.92402 11.1768 7.07057 11.2149 7.11746 11.2736C7.17901 11.3497 7.20246 11.4494 7.21125 11.5373C7.22297 11.6663 7.20246 11.7747 7.20246 11.7835Z" fill="#D13239"/>
<path fill-rule="evenodd" clip-rule="evenodd" d="M23.979 9.89307H25.1807L23.8354 17.9648L22.6307 17.9619L23.979 9.89307Z" fill="#D13239"/>
<path fill-rule="evenodd" clip-rule="evenodd" d="M30.392 12.1435L31.5438 12.1406L31.9512 16.2381L33.7245 12.1348L35.146 12.1377L35.5651 16.2527L37.3354 12.1406H38.5313L35.993 17.9585H34.5745L34.1642 13.8845L32.3733 17.9585L30.9781 17.9643L30.392 12.1435Z" fill="#D13239"/>
<path d="M21.7603 12.1904C21.4231 12.0819 20.8399 12.0584 20.3446 12.0643C19.8668 12.0702 19.647 12.0936 19.4683 12.1317C19.4683 12.1317 18.6183 12.2548 18.1347 12.8527C17.6512 13.4507 17.5075 14.7578 17.5075 14.7578C17.5075 14.7578 17.2203 16.2027 17.3053 16.6864C17.3903 17.1671 17.5398 17.6155 18.0849 17.8236C18.63 18.0347 19.0931 18.0228 19.0931 18.0228C19.0931 18.0228 20.0662 18.0991 20.7989 17.9261C21.5316 17.7532 21.9185 17.2374 21.9185 17.2374C21.9185 17.2374 22.0914 17.0146 22.2145 16.7508C22.3376 16.4871 22.3757 16.3024 22.3815 16.279L22.4578 15.9654L21.2122 15.9684C21.2122 15.9684 21.1448 16.7919 20.4706 16.8681C19.7994 16.9443 19.439 16.915 19.307 16.9092C19.1781 16.9032 18.4572 16.9355 18.5157 16.3317C18.5157 16.323 18.5157 16.3113 18.5187 16.2937C18.5509 15.6078 18.6271 15.429 18.6271 15.429L22.5399 15.4173L22.7069 14.4501C22.9003 13.354 22.7626 12.5186 21.7603 12.1904ZM21.4994 14.3124L18.8176 14.3094L18.9231 13.8844C18.9231 13.8844 19.017 13.5503 19.2016 13.4096C19.3891 13.2689 19.6265 13.2426 19.8493 13.222C20.072 13.2015 20.667 13.1575 21.1506 13.2572C21.3118 13.2894 21.4642 13.3803 21.5052 13.5151C21.599 13.8317 21.4994 14.3124 21.4994 14.3124Z" fill="#D13239"/>
<path d="M18.5247 16.3053C18.5247 16.314 18.5217 16.3229 18.5217 16.3316C18.5187 16.3786 18.5247 16.3023 18.5247 16.3053Z" fill="#D13239"/>
<path d="M25.9047 16.3082C25.9047 16.3171 25.9017 16.3258 25.9017 16.3346C25.9017 16.3815 25.9047 16.3052 25.9047 16.3082Z" fill="#D13239"/>
<path d="M29.1434 12.1933C28.8063 12.0848 28.223 12.0614 27.7277 12.0672C27.25 12.0731 27.0301 12.0965 26.8513 12.1347C26.8513 12.1347 26.0014 12.2578 25.5178 12.8557C25.0342 13.4536 24.8906 14.7608 24.8906 14.7608C24.8906 14.7608 24.6034 16.2057 24.6883 16.6894C24.7733 17.17 24.9228 17.6185 25.4679 17.8265C26.0132 18.0376 26.4762 18.0259 26.4762 18.0259C26.4762 18.0259 27.4493 18.102 28.182 17.9291C28.9147 17.7562 29.3016 17.2403 29.3016 17.2403C29.3016 17.2403 29.4745 17.0176 29.5976 16.7538C29.7207 16.49 29.7589 16.3054 29.7647 16.2819L29.8409 15.9683L28.5953 15.9713C28.5953 15.9713 28.5279 16.7949 27.8537 16.871C27.1826 16.9473 26.822 16.918 26.6902 16.915C26.5613 16.9091 25.8402 16.9384 25.8988 16.3376C25.8988 16.3288 25.8988 16.3171 25.9018 16.2995C25.934 15.6137 26.0102 15.4349 26.0102 15.4349L29.923 15.4232L30.09 14.456C30.2834 13.3569 30.1457 12.5186 29.1434 12.1933ZM28.8708 14.3123L26.189 14.3095L26.2945 13.8845C26.2945 13.8845 26.3883 13.5503 26.573 13.4096C26.7576 13.269 26.998 13.2426 27.2206 13.2221C27.4434 13.2016 28.0383 13.1576 28.522 13.2572C28.6832 13.2895 28.8356 13.3803 28.8766 13.5152C28.9704 13.8288 28.8708 14.3123 28.8708 14.3123Z" fill="#D13239"/>
<path fill-rule="evenodd" clip-rule="evenodd" d="M39.9145 12.1435L40.6853 16.3992L42.8629 12.1406L44.0881 12.1523L40.949 18.234C40.949 18.234 40.3805 19.336 40.0288 19.6144C39.677 19.8929 39.4601 20.0189 39.1729 20.0482C38.8857 20.0775 38.7685 20.0981 38.493 20.0482L38.1998 19.9954L38.3816 18.9081C38.3816 18.9081 38.8681 18.9989 39.1553 18.8847C39.4455 18.7703 39.677 18.2779 39.677 18.2779L39.8236 18.0317L38.6893 12.1406L39.9145 12.1435Z" fill="#D13239"/>
<path fill-rule="evenodd" clip-rule="evenodd" d="M44.5336 12.721L45.7968 12.724L45.8731 12.2345C45.8731 12.2345 46.0079 11.3493 46.3098 11.1793C46.4065 11.1236 46.5618 11.0738 46.7406 11.0416C47.0718 10.983 47.4909 10.9771 47.8338 10.9888C48.3585 11.0064 48.5578 11.0123 49.0913 11.0738C49.6247 11.1354 49.4898 11.6512 49.4898 11.6512L49.3843 12.4221C49.3843 12.4221 49.3375 12.7679 49.2144 12.9819C49.1058 13.1724 48.8069 13.3014 48.634 13.357C48.2178 13.4919 46.7933 13.8553 46.7933 13.8553L45.6737 14.1776C45.6737 14.1776 44.9849 14.377 44.601 14.802C44.2142 15.2299 44.0617 15.7134 44.009 15.9655C43.9562 16.2175 43.6602 17.9615 43.6602 17.9615L49.7038 17.9645L49.906 16.7569L45.1256 16.7627L45.2107 16.2703C45.2107 16.2703 45.2663 15.7633 45.4715 15.5963C45.536 15.5435 45.5682 15.4732 45.9492 15.3383C46.1778 15.2563 46.9574 15.0482 46.9574 15.0482L48.76 14.5558C48.76 14.5558 49.7448 14.3037 50.1318 13.7644C50.5186 13.2281 50.668 12.1993 50.668 12.1993C50.668 12.1993 50.7736 11.1998 50.6916 10.8862C50.6123 10.5726 50.3163 10.1975 49.9558 10.0363C49.5954 9.87506 49.2202 9.78128 48.1328 9.79593C47.0454 9.81059 46.5061 9.86041 45.9551 10.0656C45.4041 10.2678 45.0846 10.6371 44.8824 11.1588C44.6626 11.6541 44.5336 12.721 44.5336 12.721Z" fill="#B3B2B1"/>
<path fill-rule="evenodd" clip-rule="evenodd" d="M55.9114 14.966L56.7584 9.88965H55.2578L50.586 14.9073L50.3749 16.1794H54.4606L54.1616 17.9614L55.4161 17.9643L55.7121 16.1794L56.8698 16.1823L57.0779 14.966H55.9114ZM54.6629 14.9689L52.0221 14.966L55.2373 11.5398L54.6629 14.9689Z" fill="#B3B2B1"/>
<path fill-rule="evenodd" clip-rule="evenodd" d="M10.8132 10.558H14.6616C14.6616 10.558 15.5233 9.86047 16.1358 9.41205C16.7484 8.96362 17.8622 8.25727 17.8622 8.25727L15.6874 7.24023C15.6874 7.24023 13.8497 8.37744 13.0701 8.9138C12.3139 9.40911 10.8132 10.558 10.8132 10.558Z" fill="#B3B2B1"/>
<path fill-rule="evenodd" clip-rule="evenodd" d="M19.0843 7.53935L17.2994 6.33768C17.2994 6.33768 18.9144 5.4203 21.0628 4.56448C23.2082 3.70865 24.3541 3.35107 24.3541 3.35107L24.7176 5.05394C24.7176 5.05394 22.6513 5.74563 21.4672 6.30544C20.2421 6.82714 19.0843 7.53935 19.0843 7.53935Z" fill="#B3B2B1"/>
<path fill-rule="evenodd" clip-rule="evenodd" d="M26.0366 4.68155L25.726 2.93765C25.726 2.93765 27.9299 2.35146 29.9464 1.97631C31.9658 1.60115 34.6418 1.42236 34.6418 1.42236L33.7566 4.11589C33.7566 4.11589 31.4032 3.79348 29.1932 4.09537C27.4727 4.30053 26.0366 4.68155 26.0366 4.68155Z" fill="#B3B2B1"/>
<path fill-rule="evenodd" clip-rule="evenodd" d="M35.1576 4.34446L36.6465 1.35198C36.6465 1.35198 39.9085 1.2875 42.7222 1.72422C45.536 2.15798 48.1093 2.82624 48.0536 2.85554L40.9197 6.5866C40.9197 6.5866 39.252 5.53148 37.1828 4.88374C36.0104 4.53789 35.1576 4.34446 35.1576 4.34446Z" fill="#B3B2B1"/>
<path fill-rule="evenodd" clip-rule="evenodd" d="M42.1976 7.39843L43.7656 8.58839H56.6529C56.6529 8.58839 56.6265 8.17219 56.2836 7.58015C56.0697 7.21085 55.6798 6.81811 55.2725 6.41071C55.123 6.26416 54.5309 5.80107 54.0855 5.51091C52.9482 4.77232 52.3123 4.48802 51.1311 3.95166L42.1976 7.39843Z" fill="#B3B2B1"/>
<path d="M11.6487 12.1382C11.1651 12.1382 10.7079 12.3287 10.3181 12.5427L10.3855 12.1382H9.10468L8.07886 17.9327H9.3626L9.93119 14.7233C10.0484 14.0726 10.535 13.2666 11.4846 13.2666L12.1469 13.2637L12.3463 12.1382H11.6487Z" fill="#D13239"/>
</g>
</g>
<defs>
<clipPath id="clip0_454_812">
<rect width="56.8989" height="20.79" fill="white" transform="translate(0.984619 0.330078)"/>
</clipPath>
</defs>
</svg>
