<svg width="62" height="22" viewBox="0 0 62 22" fill="none" xmlns="http://www.w3.org/2000/svg">
<g clip-path="url(#clip0_452_771)">
<mask id="mask0_452_771" style="mask-type:luminance" maskUnits="userSpaceOnUse" x="0" y="0" width="62" height="21">
<path d="M61.4153 0.862305H0.557861V20.5581H61.4153V0.862305Z" fill="white"/>
</mask>
<g mask="url(#mask0_452_771)">
<path d="M26.9291 20.274H21.9993L25.0828 1.20801H30.0124L26.9291 20.274Z" fill="#00579F"/>
<path d="M44.8006 1.67403C43.8281 1.28825 42.2859 0.862305 40.3789 0.862305C35.5104 0.862305 32.0821 3.4584 32.0611 7.17003C32.0206 9.90846 34.5156 11.4295 36.3817 12.3425C38.289 13.2755 38.9374 13.8846 38.9374 14.7162C38.918 15.9936 37.3962 16.5822 35.9769 16.5822C34.0086 16.5822 32.954 16.2787 31.3513 15.5681L30.7021 15.2635L30.0122 19.5434C31.1685 20.0702 33.2988 20.5376 35.5104 20.5581C40.6832 20.5581 44.0508 18.0022 44.0908 14.0469C44.1105 11.8764 42.793 10.2134 39.9527 8.85439C38.2284 7.98202 37.1724 7.39378 37.1724 6.50119C37.1926 5.68974 38.0656 4.85861 40.012 4.85861C41.6147 4.81791 42.7922 5.20315 43.6843 5.58865L44.1301 5.79111L44.8006 1.67403Z" fill="#00579F"/>
<path d="M51.3529 13.5196C51.7588 12.4243 53.321 8.1851 53.321 8.1851C53.3006 8.22581 53.7262 7.06957 53.9697 6.35975L54.3141 8.0026C54.3141 8.0026 55.2477 12.5664 55.4505 13.5196C54.68 13.5196 52.3265 13.5196 51.3529 13.5196ZM57.4381 1.20801H53.6249C52.4489 1.20801 51.5555 1.55254 51.0481 2.78992L43.7255 20.2738H48.8982C48.8982 20.2738 49.7499 17.9206 49.9329 17.4138C50.5004 17.4138 55.5324 17.4138 56.2625 17.4138C56.404 18.0831 56.8507 20.2738 56.8507 20.2738H61.4152L57.4381 1.20801Z" fill="#00579F"/>
<path d="M17.8819 1.20801L13.0539 14.2093L12.5264 11.5724C11.6337 8.52991 8.83439 5.22427 5.71045 3.58062L10.1327 20.2539H15.3459L23.0948 1.20801H17.8819Z" fill="#00579F"/>
<path d="M8.5707 1.20801H0.639006L0.557861 1.59324C6.74508 3.17544 10.8428 6.98924 12.5264 11.5732L10.8021 2.81068C10.5182 1.59298 9.6458 1.24818 8.5707 1.20801Z" fill="#FAA61A"/>
</g>
</g>
<defs>
<clipPath id="clip0_452_771">
<rect width="61.2758" height="20.79" fill="white" transform="translate(0.519287 0.330078)"/>
</clipPath>
</defs>
</svg>
