<?xml version="1.0" encoding="UTF-8"?>
<svg id="logosandtypes_com" data-name="logosandtypes com" xmlns="http://www.w3.org/2000/svg" viewBox="0 0 150 150">
  <defs>
    <style>
      .cls-1 {
        fill: none;
      }

      .cls-2 {
        fill: #023734;
      }
    </style>
  </defs>
  <path class="cls-1" d="M0,0H150V150H0V0Z"/>
  <path id="logo-mark" class="cls-2" d="M40.02,32.33h.29c14.79,19.44,24.09,41.59,31.06,66.03h2.23c6.05-27.23,17.1-50.7,27.25-66.03h.28c-2.23,9.6-4.35,22.61-4.35,35.29-.07,5.68,.48,11.35,1.65,16.91-4.55,3.57-8.61,7.71-12.09,12.33l1.25,2.11c3.33-4.34,7.17-8.26,11.42-11.7,2.86,11.19,8.62,19.3,17.81,19.3,3.92,.12,7.7-1.49,10.34-4.4l-1.15-1.94c-1.62,1.94-4,3.06-6.53,3.09-6.34,0-10.88-8.51-13.01-21.03,4.52-2.52,9.6-3.87,14.78-3.94,11.82,0,19.87,8.45,19.87,18.33,0,11.31-10.45,22.73-30.66,22.73-27.55,0-48.58-18.62-67.21-29.64,1.66-6.1,2.57-13.42,2.57-22.04-.22-12.02-2.18-23.94-5.83-35.39M7.99,97.1c0-6.45,4.8-12.39,13.42-12.39,5.48,0,11.53,2.4,17.93,6.05-4.11,11.3-11.42,17.93-19.87,17.93-6.79,0-11.48-5.26-11.48-11.6m104.32,26.27c21.07,0,37.11-11.14,37.11-26.67,0-12.67-10.74-21.35-25.87-21.35-6.08-.01-12.07,1.43-17.47,4.22-.49-4.21-.73-8.44-.73-12.67,0-13.3,2.23-28.21,6.45-40.37h-10.3c-11.51,17.29-20.45,36.16-26.55,56.02-5.48-18.05-15.36-38.54-27.98-56.01h-11.3c4.35,13.7,7.37,27.41,7.37,40.77,.07,7.03-.87,14.03-2.8,20.79-6.79-3.83-13.19-6.34-19.52-6.34-11.88,0-19.93,8.22-19.93,17.93s8.05,15.95,16.78,15.95c9.19,0,19.58-6.91,24.73-23.13,19.01,11.31,42.05,30.89,70,30.89"/>
</svg>